<svg width="28" height="28" viewBox="0 0 28 28" fill="none" xmlns="http://www.w3.org/2000/svg">
<path d="M14 4.375C7.96906 4.375 3.0625 8.29068 3.0625 13.1045C3.0625 16.1114 4.96404 18.8584 8.08691 20.454C7.19573 21.9564 6.34527 23.1662 6.33521 23.1807C6.13702 23.4624 6.12259 23.8342 6.29846 24.1309C6.45771 24.3982 6.74502 24.5598 7.05127 24.5598C7.08452 24.5598 7.118 24.5578 7.15125 24.5538C7.26543 24.5407 9.90875 24.2138 13.1327 21.8058C13.4267 21.8246 13.7174 21.834 14 21.834C20.0309 21.834 24.9375 17.9183 24.9375 13.1045C24.9375 8.29068 20.0309 4.375 14 4.375ZM14 6.125C19.0658 6.125 23.1875 9.2558 23.1875 13.1045C23.1875 16.9532 19.0658 20.084 14 20.084C13.6596 20.084 13.3039 20.0689 12.943 20.037C12.7242 20.0169 12.5044 20.0817 12.3303 20.2173C11.1281 21.1496 10.0106 21.754 9.10889 22.1425C9.4217 21.6385 9.75959 21.0732 10.0873 20.4856C10.2098 20.2673 10.2323 20.0066 10.1497 19.7704C10.067 19.5341 9.8872 19.3449 9.65576 19.25C6.66807 18.0237 4.8125 15.6682 4.8125 13.1045C4.8125 9.2558 8.93419 6.125 14 6.125ZM9.67029 9.21912C9.33298 9.21912 9.06702 9.47983 9.06702 9.82239C9.06702 10.1606 9.32816 10.4376 9.67029 10.4376H18.3425C18.686 10.4376 18.9458 10.1593 18.9458 9.82239C18.9458 9.48507 18.6851 9.21912 18.3425 9.21912H9.67029ZM9.67029 12.2842C9.32729 12.2842 9.06702 12.5634 9.06702 12.9003C9.06702 13.2385 9.32773 13.5155 9.67029 13.5155H18.3434C18.6864 13.5155 18.9467 13.2371 18.9467 12.9003C18.9467 12.5621 18.6859 12.2842 18.3434 12.2842H9.67029ZM9.67029 15.3621C9.24854 15.3621 9.06702 15.7316 9.06702 15.9901C9.06702 16.3274 9.32773 16.5934 9.67029 16.5934H14.9758C15.3131 16.5934 15.5791 16.3327 15.5791 15.9901C15.5791 15.7355 15.3989 15.3621 14.9758 15.3621H9.67029Z" fill="white"/>
</svg>
