<svg width="76" height="92" viewBox="0 0 76 92" fill="none" xmlns="http://www.w3.org/2000/svg">
<g filter="url(#filter0_ddii_2365_1076)">
<rect x="16" y="8" width="44" height="60" rx="6" fill="url(#paint0_linear_2365_1076)"/>
<rect x="21" y="13" width="34" height="50" rx="1" fill="black"/>
<rect x="21" y="13" width="34" height="50" rx="12" fill="url(#paint1_linear_2365_1076)"/>
<rect x="21" y="13" width="34" height="50" rx="12" fill="url(#paint2_linear_2365_1076)"/>
<path d="M31.2157 25.8242C31.1198 25.8205 31.0258 25.8514 30.9508 25.9112C30.8758 25.971 30.8248 26.0557 30.8071 26.15C30.8071 26.15 30.472 27.9067 30.9391 29.8922C29.4199 29.8748 28.1276 30.7835 27.4133 31.9969C26.7109 33.1902 26.5454 34.7195 27.2805 35.9945C25.4202 36.6013 24.1399 37.6961 24.1399 37.6961C24.096 37.7337 24.0608 37.7803 24.0367 37.8327C24.0125 37.8852 24 37.9422 24 38C24 38.0578 24.0125 38.1148 24.0367 38.1673C24.0608 38.2197 24.096 38.2664 24.1399 38.3039C24.1399 38.3039 25.4202 39.3987 27.2805 40.0055C26.5454 41.2805 26.7109 42.8098 27.4133 44.0031C28.1277 45.2167 29.4196 46.1255 30.9391 46.1078C30.472 48.0933 30.8071 49.85 30.8071 49.85C30.8178 49.9066 30.8406 49.9603 30.874 50.0073C30.9073 50.0543 30.9504 50.0935 31.0004 50.1223C31.0503 50.1511 31.1059 50.1687 31.1632 50.1741C31.2206 50.1794 31.2785 50.1722 31.3329 50.1531C31.3329 50.1531 32.9915 49.5742 34.4719 48.2086C35.2424 49.4109 36.6336 50 38.0001 50C39.3665 50 40.7577 49.4109 41.5282 48.2086C43.0086 49.5742 44.6672 50.1531 44.6672 50.1531C44.7216 50.1722 44.7795 50.1794 44.8369 50.1741C44.8943 50.1687 44.9498 50.1511 44.9997 50.1223C45.0497 50.0935 45.0928 50.0543 45.1262 50.0073C45.1595 49.9603 45.1823 49.9066 45.193 49.85C45.193 49.85 45.5281 48.0933 45.061 46.1078C46.5802 46.1252 47.8725 45.2165 48.5868 44.0031C49.2892 42.8098 49.4547 41.2805 48.7196 40.0055C50.5799 39.3987 51.8602 38.3039 51.8602 38.3039C51.9041 38.2664 51.9393 38.2197 51.9635 38.1673C51.9876 38.1148 52.0001 38.0578 52.0001 38C52.0001 37.9422 51.9876 37.8852 51.9635 37.8327C51.9393 37.7803 51.9041 37.7337 51.8602 37.6961C51.8602 37.6961 50.5799 36.6013 48.7196 35.9945C49.4547 34.7195 49.2892 33.1902 48.5868 31.9969C47.8725 30.7835 46.5802 29.8748 45.061 29.8922C45.5281 27.9067 45.193 26.15 45.193 26.15C45.1755 26.0574 45.1259 25.9739 45.0529 25.9143C44.9798 25.8547 44.8881 25.8228 44.7938 25.8242C44.7507 25.8249 44.7079 25.8325 44.6672 25.8469C44.6672 25.8469 43.0086 26.4258 41.5282 27.7914C40.7577 26.5891 39.3665 26 38.0001 26C36.6336 26 35.2424 26.5891 34.4719 27.7914C32.9915 26.4258 31.3329 25.8469 31.3329 25.8469C31.2952 25.8335 31.2557 25.8259 31.2157 25.8242ZM38.0001 26.8C39.2218 26.8 40.4142 27.3558 40.979 28.4352C41.0002 28.4758 41.0148 28.5233 41.0344 28.5656C41.0435 28.599 41.0569 28.631 41.0743 28.6609C41.5296 29.7443 41.4459 31.3566 40.1282 33.5953L40.818 34.0016C42.2275 31.6071 43.7185 30.7533 44.9618 30.693C46.2051 30.6326 47.2895 31.3699 47.8977 32.4031C48.5059 33.4364 48.6126 34.7166 47.9415 35.7367C47.2703 36.7569 45.7687 37.6 42.9461 37.6V38.4C45.7687 38.4 47.2703 39.2431 47.9415 40.2633C48.6126 41.2834 48.5059 42.5636 47.8977 43.5969C47.2895 44.6301 46.2051 45.3674 44.9618 45.307C43.7185 45.2467 42.2275 44.3929 40.818 41.9984C40.7641 41.907 40.6761 41.8407 40.5734 41.8141C40.4706 41.7875 40.3615 41.8029 40.27 41.8567C40.1786 41.9106 40.1122 41.9986 40.0856 42.1013C40.059 42.2041 40.0743 42.3132 40.1282 42.4047C41.4468 44.6449 41.5299 46.258 41.0735 47.3414C41.0562 47.3711 41.0428 47.4028 41.0336 47.4359C41.0143 47.4777 41 47.5247 40.979 47.5648C40.4142 48.6442 39.2218 49.2 38.0001 49.2C36.7783 49.2 35.5859 48.6442 35.0211 47.5648C34.9999 47.5242 34.9853 47.4767 34.9657 47.4344C34.9566 47.401 34.9432 47.369 34.9258 47.3391C34.4706 46.2557 34.5542 44.6434 35.8719 42.4047C35.9258 42.3132 35.9411 42.2041 35.9145 42.1013C35.8879 41.9986 35.8215 41.9106 35.7301 41.8567C35.6386 41.8029 35.5295 41.7875 35.4267 41.8141C35.324 41.8407 35.236 41.907 35.1821 41.9984C33.7726 44.3929 32.2816 45.2467 31.0383 45.307C29.795 45.3674 28.7106 44.6301 28.1024 43.5969C27.4942 42.5637 27.3875 41.2834 28.0586 40.2633C28.7298 39.2431 30.2314 38.4 33.054 38.4C33.0673 38.3999 33.0806 38.3991 33.0938 38.3977C33.1204 38.3946 33.1465 38.3888 33.1719 38.3805C33.1844 38.3764 33.1966 38.3717 33.2086 38.3664C33.2701 38.3395 33.3239 38.2976 33.3649 38.2445C33.373 38.234 33.3806 38.223 33.3876 38.2117C33.4089 38.1776 33.425 38.1405 33.4352 38.1016C33.452 38.0368 33.4523 37.9688 33.436 37.9039C33.4265 37.8649 33.4113 37.8275 33.3907 37.793C33.3767 37.77 33.3605 37.7486 33.3422 37.7289C33.3333 37.7193 33.3239 37.7102 33.3141 37.7016C33.2941 37.6838 33.2724 37.6681 33.2493 37.6547C33.2379 37.6479 33.2261 37.6416 33.2141 37.6359C33.1774 37.6192 33.1385 37.6082 33.0985 37.6031C33.0837 37.6013 33.0689 37.6002 33.054 37.6C30.2314 37.6 28.7298 36.7569 28.0586 35.7367C27.3875 34.7166 27.4942 33.4364 28.1024 32.4031C28.7106 31.3699 29.7951 30.6326 31.0383 30.693C32.2816 30.7533 33.7726 31.6071 35.1821 34.0016C35.236 34.093 35.324 34.1593 35.4267 34.1859C35.5295 34.2125 35.6386 34.1971 35.7301 34.1433C35.8215 34.0894 35.8879 34.0014 35.9145 33.8987C35.9411 33.7959 35.9258 33.6868 35.8719 33.5953C34.5533 31.3551 34.4703 29.742 34.9266 28.6586C34.9439 28.6289 34.9573 28.5972 34.9665 28.5641C34.9858 28.5223 35.0002 28.4753 35.0211 28.4352C35.5859 27.3558 36.7783 26.8 38.0001 26.8ZM31.5493 26.8273C32.0624 27.0459 33.0764 27.5287 34.111 28.5555C33.8504 29.3432 33.8429 30.3007 34.1126 31.3914C33.3463 30.6724 32.5626 30.2107 31.7969 30.0086C31.3868 28.5577 31.4805 27.3901 31.5493 26.8273ZM44.4508 26.8273C44.5196 27.3901 44.6133 28.5577 44.2032 30.0086C43.4375 30.2107 42.6538 30.6724 41.8876 31.3914C42.1572 30.3007 42.1497 29.3432 41.8891 28.5555C42.9237 27.5287 43.9378 27.0459 44.4508 26.8273ZM37.9985 28.8047C37.894 28.8047 37.7897 28.8416 37.7157 28.9156C37.6797 28.9556 37.6521 28.9957 37.6321 29.0477C37.6121 29.0957 37.6001 29.148 37.6001 29.2C37.6001 29.252 37.6121 29.3043 37.6321 29.3523C37.6521 29.4043 37.6797 29.4444 37.7157 29.4844C37.7357 29.5004 37.7558 29.52 37.7758 29.532C37.7998 29.548 37.8237 29.56 37.8477 29.568C37.8717 29.58 37.8964 29.5882 37.9204 29.5922C37.9484 29.5962 37.9761 29.6 38.0001 29.6C38.1041 29.6 38.2084 29.5564 38.2844 29.4844C38.3204 29.4444 38.348 29.4043 38.368 29.3523C38.388 29.3043 38.4001 29.252 38.4001 29.2C38.4001 29.096 38.3564 28.9916 38.2844 28.9156C38.2084 28.8416 38.103 28.8047 37.9985 28.8047ZM38.0001 30.132C37.7801 30.132 37.6001 30.312 37.6001 30.532C37.6001 30.756 37.7801 30.932 38.0001 30.932C38.2201 30.932 38.4001 30.756 38.4001 30.532C38.4001 30.312 38.2201 30.132 38.0001 30.132ZM38.0001 31.468C37.7801 31.468 37.6001 31.644 37.6001 31.868C37.6001 32.088 37.7801 32.268 38.0001 32.268C38.2201 32.268 38.4001 32.088 38.4001 31.868C38.4001 31.644 38.2201 31.468 38.0001 31.468ZM38.0001 32.8047C37.8951 32.8047 37.7897 32.8416 37.7157 32.9156C37.6437 32.9916 37.6001 33.096 37.6001 33.2C37.6001 33.304 37.6437 33.4084 37.7157 33.4844C37.7917 33.5564 37.8961 33.6 38.0001 33.6C38.1041 33.6 38.2084 33.5564 38.2844 33.4844C38.3564 33.4084 38.4001 33.304 38.4001 33.2C38.4001 33.096 38.3564 32.9916 38.2844 32.9156C38.2104 32.8416 38.1051 32.8047 38.0001 32.8047ZM30.3399 33.2023C30.3009 33.2063 30.2623 33.216 30.2243 33.232C30.1763 33.252 30.1321 33.2796 30.0961 33.3156C30.0601 33.3556 30.0279 33.3997 30.0079 33.4477C29.9879 33.4957 29.9797 33.548 29.9797 33.6C29.9797 33.628 29.9803 33.6517 29.9883 33.6797C29.9923 33.7037 29.9999 33.7283 30.0079 33.7523C30.0199 33.7763 30.0317 33.8002 30.0477 33.8242C30.0597 33.8442 30.0761 33.8644 30.0961 33.8844C30.1321 33.9204 30.1763 33.948 30.2243 33.968C30.2763 33.988 30.3277 34 30.3797 34C30.4037 34 30.4323 33.9962 30.4563 33.9922C30.4843 33.9882 30.5081 33.98 30.5321 33.968C30.5561 33.96 30.5801 33.948 30.6001 33.932C30.6241 33.916 30.6442 33.9004 30.6602 33.8844C30.6802 33.8644 30.6958 33.8442 30.7118 33.8242C30.7238 33.8002 30.7397 33.7763 30.7477 33.7523C30.7597 33.7283 30.7639 33.7037 30.7719 33.6797C30.7759 33.6517 30.7797 33.628 30.7797 33.6C30.7797 33.548 30.7677 33.4957 30.7477 33.4477C30.7277 33.3997 30.7002 33.3556 30.6602 33.3156C30.6442 33.2996 30.6241 33.28 30.6001 33.268C30.5801 33.252 30.5561 33.24 30.5321 33.232C30.5081 33.22 30.4843 33.2118 30.4563 33.2078C30.4183 33.1998 30.3789 33.1983 30.3399 33.2023ZM45.6219 33.2047C45.5179 33.2047 45.4139 33.2416 45.3399 33.3156C45.2639 33.3916 45.2204 33.496 45.2204 33.6C45.2204 33.704 45.2639 33.8084 45.3399 33.8844C45.4119 33.9564 45.5164 34 45.6204 34C45.7244 34 45.828 33.9564 45.904 33.8844C45.98 33.8084 46.0204 33.704 46.0204 33.6C46.0204 33.496 45.98 33.3916 45.904 33.3156C45.83 33.2416 45.7259 33.2047 45.6219 33.2047ZM31.5813 33.8688C31.4266 33.8496 31.2693 33.924 31.1883 34.068C31.0763 34.256 31.1441 34.5037 31.3321 34.6117C31.3961 34.6477 31.4641 34.668 31.5321 34.668C31.6721 34.668 31.8037 34.596 31.8797 34.468C31.9917 34.276 31.9241 34.0323 31.7321 33.9203C31.6841 33.8923 31.6329 33.8751 31.5813 33.8688ZM44.4172 33.8688C44.3659 33.8751 44.315 33.8923 44.268 33.9203C44.076 34.0323 44.0084 34.276 44.1204 34.468C44.1924 34.596 44.328 34.668 44.468 34.668C44.536 34.668 44.604 34.6477 44.668 34.6117C44.86 34.5037 44.9238 34.26 44.8118 34.068C44.7308 33.924 44.5714 33.8496 44.4172 33.8688ZM38.0001 34.4C36.0166 34.4 34.4001 36.0165 34.4001 38C34.4001 39.9835 36.0166 41.6 38.0001 41.6C39.9835 41.6 41.6001 39.9835 41.6001 38C41.6001 36.0165 39.9835 34.4 38.0001 34.4ZM32.7376 34.5367C32.5827 34.5174 32.4239 34.591 32.3399 34.732C32.2319 34.924 32.2963 35.1677 32.4883 35.2797C32.5523 35.3157 32.6203 35.332 32.6883 35.332C32.8243 35.332 32.96 35.26 33.036 35.132C33.144 34.94 33.0803 34.6963 32.8883 34.5883C32.8403 34.5603 32.7892 34.5432 32.7376 34.5367ZM43.2626 34.5367C43.211 34.5432 43.1598 34.5603 43.1118 34.5883C42.9198 34.6963 42.8561 34.94 42.9641 35.132C43.0401 35.26 43.1758 35.332 43.3118 35.332C43.3798 35.332 43.4478 35.3157 43.5118 35.2797C43.7038 35.1677 43.7683 34.924 43.6563 34.732C43.5753 34.591 43.4172 34.5174 43.2626 34.5367ZM38.0001 35.2C39.5512 35.2 40.8001 36.4489 40.8001 38C40.8001 39.5511 39.5512 40.8 38.0001 40.8C36.4489 40.8 35.2001 39.5511 35.2001 38C35.2001 36.4489 36.4489 35.2 38.0001 35.2ZM33.8055 35.2023C33.7666 35.2062 33.7282 35.216 33.6922 35.232C33.6402 35.252 33.5962 35.2796 33.5602 35.3156C33.5242 35.3556 33.4958 35.3997 33.4758 35.4477C33.4518 35.4957 33.4438 35.548 33.4438 35.6C33.4438 35.704 33.4882 35.8084 33.5602 35.8844C33.5962 35.9204 33.6402 35.948 33.6922 35.968C33.7402 35.988 33.7918 36 33.8438 36C33.9478 36 34.0522 35.9564 34.1282 35.8844C34.2002 35.8084 34.2438 35.704 34.2438 35.6C34.2438 35.548 34.2318 35.4957 34.2118 35.4477C34.1918 35.3997 34.1642 35.3556 34.1282 35.3156C34.0442 35.2316 33.9221 35.1907 33.8055 35.2023ZM42.1579 35.2047C42.0534 35.2047 41.9479 35.2416 41.8719 35.3156C41.7999 35.3916 41.7563 35.496 41.7563 35.6C41.7563 35.704 41.7999 35.8084 41.8719 35.8844C41.9479 35.9564 42.0523 36 42.1563 36C42.2643 36 42.3639 35.9564 42.4399 35.8844C42.4759 35.8444 42.5082 35.8043 42.5282 35.7523C42.5482 35.7043 42.5563 35.652 42.5563 35.6C42.5563 35.496 42.5159 35.3916 42.4399 35.3156C42.3659 35.2416 42.2624 35.2047 42.1579 35.2047ZM27.7954 36.6703C28.3549 37.2441 29.1624 37.6981 30.2008 38C29.1624 38.3019 28.3549 38.7559 27.7954 39.3297C26.4271 38.9428 25.534 38.3299 25.0946 38C25.534 37.6701 26.4271 37.0572 27.7954 36.6703ZM48.2047 36.6703C49.573 37.0572 50.4662 37.6701 50.9055 38C50.4662 38.3299 49.573 38.9428 48.2047 39.3297C47.6453 38.7559 46.8377 38.3019 45.7993 38C46.8377 37.6981 47.6452 37.2441 48.2047 36.6703ZM33.8055 40.0023C33.7666 40.0062 33.7282 40.016 33.6922 40.032C33.6402 40.052 33.5962 40.0796 33.5602 40.1156C33.4882 40.1916 33.4438 40.296 33.4438 40.4C33.4438 40.504 33.4882 40.6084 33.5602 40.6844C33.5962 40.7204 33.6402 40.748 33.6922 40.768C33.7402 40.788 33.7918 40.8 33.8438 40.8C33.9478 40.8 34.0522 40.7564 34.1282 40.6844C34.2002 40.6084 34.2438 40.504 34.2438 40.4C34.2438 40.376 34.24 40.3483 34.236 40.3203C34.232 40.2963 34.2238 40.2717 34.2118 40.2477C34.2038 40.2237 34.1918 40.1998 34.1758 40.1758L34.1282 40.1156C34.0442 40.0316 33.9221 39.9907 33.8055 40.0023ZM42.1188 40.0023C42.0797 40.0062 42.041 40.016 42.004 40.032C41.956 40.052 41.9119 40.0796 41.8719 40.1156C41.7999 40.1916 41.7563 40.296 41.7563 40.4C41.7563 40.504 41.7999 40.6084 41.8719 40.6844C41.9479 40.7564 42.0523 40.8 42.1563 40.8C42.2643 40.8 42.3639 40.7564 42.4399 40.6844C42.5159 40.6084 42.5563 40.504 42.5563 40.4C42.5563 40.296 42.5159 40.1916 42.4399 40.1156C42.3559 40.0316 42.236 39.9907 42.1188 40.0023ZM32.6391 40.6688C32.5875 40.6751 32.5363 40.6923 32.4883 40.7203C32.2963 40.8323 32.2319 41.076 32.3399 41.268C32.4159 41.396 32.5523 41.468 32.6883 41.468C32.7563 41.468 32.8243 41.4477 32.8883 41.4117C33.0803 41.3037 33.144 41.056 33.036 40.868C32.952 40.724 32.794 40.6496 32.6391 40.6688ZM43.361 40.6688C43.2061 40.6496 43.0481 40.724 42.9641 40.868C42.8561 41.056 42.9198 41.3037 43.1118 41.4117C43.1758 41.4477 43.2438 41.468 43.3118 41.468C43.4478 41.468 43.5843 41.396 43.6563 41.268C43.7683 41.076 43.7038 40.8323 43.5118 40.7203C43.4638 40.6923 43.4126 40.6751 43.361 40.6688ZM31.4829 41.3359C31.4312 41.3427 31.3801 41.3603 31.3321 41.3883C31.1441 41.4963 31.0763 41.74 31.1883 41.932C31.2603 42.06 31.3961 42.132 31.5321 42.132C31.6001 42.132 31.6721 42.1157 31.7321 42.0797C31.9241 41.9677 31.9917 41.724 31.8797 41.532C31.7957 41.388 31.6377 41.3157 31.4829 41.3359ZM44.5165 41.3367C44.3606 41.3174 44.2014 41.391 44.1204 41.532C44.0084 41.724 44.076 41.9677 44.268 42.0797C44.328 42.1157 44.4001 42.132 44.4641 42.132C44.6041 42.132 44.7398 42.06 44.8118 41.932C44.9238 41.74 44.86 41.4963 44.668 41.3883C44.62 41.3603 44.5684 41.3432 44.5165 41.3367ZM30.3399 42.0023C30.3009 42.0063 30.2623 42.016 30.2243 42.032C30.1763 42.052 30.1321 42.0796 30.0961 42.1156C30.0601 42.1556 30.0279 42.1997 30.0079 42.2477C29.9879 42.2957 29.9797 42.348 29.9797 42.4C29.9797 42.428 29.9803 42.4517 29.9883 42.4797C29.9923 42.5037 29.9999 42.5283 30.0079 42.5523C30.0199 42.5763 30.0317 42.6002 30.0477 42.6242C30.0597 42.6442 30.0761 42.6644 30.0961 42.6844C30.1321 42.7204 30.1763 42.748 30.2243 42.768C30.2763 42.788 30.3277 42.8 30.3797 42.8C30.4037 42.8 30.4323 42.7962 30.4563 42.7922C30.4843 42.7882 30.5081 42.78 30.5321 42.768C30.5561 42.76 30.5801 42.748 30.6001 42.732C30.6241 42.716 30.6442 42.7004 30.6602 42.6844C30.6802 42.6644 30.6958 42.6442 30.7118 42.6242C30.7238 42.6002 30.7397 42.5763 30.7477 42.5523C30.7597 42.5283 30.7639 42.5037 30.7719 42.4797C30.7759 42.4517 30.7797 42.428 30.7797 42.4C30.7797 42.348 30.7677 42.2957 30.7477 42.2477C30.7277 42.1997 30.7002 42.1556 30.6602 42.1156C30.6442 42.0996 30.6241 42.08 30.6001 42.068C30.5801 42.052 30.5561 42.04 30.5321 42.032C30.5081 42.02 30.4843 42.0118 30.4563 42.0078C30.4183 41.9998 30.3789 41.9983 30.3399 42.0023ZM45.6204 42.0047C45.5159 42.0047 45.4119 42.0416 45.3399 42.1156C45.2639 42.1916 45.2204 42.296 45.2204 42.4C45.2204 42.504 45.2639 42.6084 45.3399 42.6844C45.4119 42.7564 45.5164 42.8 45.6204 42.8C45.7244 42.8 45.828 42.7564 45.904 42.6844C45.98 42.6084 46.0204 42.504 46.0204 42.4C46.0204 42.296 45.98 42.1916 45.904 42.1156C45.83 42.0416 45.7249 42.0047 45.6204 42.0047ZM37.9985 42.4047C37.894 42.4047 37.7897 42.4416 37.7157 42.5156C37.6437 42.5916 37.6001 42.696 37.6001 42.8C37.6001 42.904 37.6437 43.0084 37.7157 43.0844C37.7917 43.1564 37.8961 43.2 38.0001 43.2C38.1041 43.2 38.2084 43.1564 38.2844 43.0844L38.3321 43.0242C38.3481 43.0002 38.36 42.9763 38.368 42.9523C38.38 42.9283 38.3882 42.9037 38.3922 42.8797C38.3962 42.8517 38.4001 42.824 38.4001 42.8C38.4001 42.776 38.3962 42.7483 38.3922 42.7203C38.3882 42.6963 38.38 42.6717 38.368 42.6477C38.36 42.6237 38.3481 42.5998 38.3321 42.5758L38.2844 42.5156C38.2084 42.4416 38.103 42.4047 37.9985 42.4047ZM38.0001 43.732C37.7801 43.732 37.6001 43.912 37.6001 44.132C37.6001 44.356 37.7801 44.532 38.0001 44.532C38.2201 44.532 38.4001 44.356 38.4001 44.132C38.4001 43.912 38.2201 43.732 38.0001 43.732ZM34.1126 44.6086C33.8429 45.6993 33.8504 46.6568 34.111 47.4445C33.0764 48.4713 32.0624 48.9541 31.5493 49.1727C31.4805 48.6099 31.3868 47.4423 31.7969 45.9914C32.5625 45.7892 33.3465 45.3274 34.1126 44.6086ZM41.8876 44.6086C42.6538 45.3276 43.4375 45.7893 44.2032 45.9914C44.6133 47.4423 44.5196 48.6099 44.4508 49.1727C43.9378 48.9541 42.9237 48.4713 41.8891 47.4445C42.1497 46.6568 42.1572 45.6993 41.8876 44.6086ZM38.0001 45.068C37.7801 45.068 37.6001 45.244 37.6001 45.468C37.6001 45.688 37.7801 45.868 38.0001 45.868C38.2201 45.868 38.4001 45.688 38.4001 45.468C38.4001 45.244 38.2201 45.068 38.0001 45.068ZM38.0188 46.4016C37.986 46.3998 37.9534 46.4018 37.9204 46.4078C37.8964 46.4118 37.8717 46.42 37.8477 46.432C37.8237 46.44 37.7998 46.452 37.7758 46.468L37.7157 46.5156C37.6797 46.5556 37.6521 46.5957 37.6321 46.6477C37.6121 46.6957 37.6001 46.748 37.6001 46.8C37.6001 46.904 37.6437 47.0084 37.7157 47.0844L37.7758 47.132C37.7998 47.148 37.8237 47.16 37.8477 47.168C37.8717 47.18 37.8964 47.1882 37.9204 47.1922C37.9484 47.1962 37.9761 47.2 38.0001 47.2C38.1041 47.2 38.2084 47.1564 38.2844 47.0844C38.3564 47.0084 38.4001 46.904 38.4001 46.8C38.4001 46.748 38.388 46.6957 38.368 46.6477C38.348 46.5997 38.3204 46.5556 38.2844 46.5156C38.2124 46.4466 38.1172 46.407 38.0188 46.4016Z" fill="black" stroke="black" stroke-width="0.363636"/>
<mask id="mask0_2365_1076" style="mask-type:alpha" maskUnits="userSpaceOnUse" x="16" y="8" width="44" height="60">
<rect x="16" y="8" width="44" height="60" rx="6" fill="#1EC748"/>
</mask>
<g mask="url(#mask0_2365_1076)">
<path d="M16 8H61L16 67V8Z" fill="url(#paint3_linear_2365_1076)" style="mix-blend-mode:luminosity"/>
</g>
</g>
<defs>
<filter id="filter0_ddii_2365_1076" x="0" y="0" width="76" height="92" filterUnits="userSpaceOnUse" color-interpolation-filters="sRGB">
<feFlood flood-opacity="0" result="BackgroundImageFix"/>
<feColorMatrix in="SourceAlpha" type="matrix" values="0 0 0 0 0 0 0 0 0 0 0 0 0 0 0 0 0 0 127 0" result="hardAlpha"/>
<feOffset dy="1"/>
<feGaussianBlur stdDeviation="1"/>
<feColorMatrix type="matrix" values="0 0 0 0 0 0 0 0 0 0 0 0 0 0 0 0 0 0 0.4 0"/>
<feBlend mode="normal" in2="BackgroundImageFix" result="effect1_dropShadow_2365_1076"/>
<feColorMatrix in="SourceAlpha" type="matrix" values="0 0 0 0 0 0 0 0 0 0 0 0 0 0 0 0 0 0 127 0" result="hardAlpha"/>
<feOffset dy="8"/>
<feGaussianBlur stdDeviation="8"/>
<feComposite in2="hardAlpha" operator="out"/>
<feColorMatrix type="matrix" values="0 0 0 0 0 0 0 0 0 0 0 0 0 0 0 0 0 0 0.25 0"/>
<feBlend mode="normal" in2="effect1_dropShadow_2365_1076" result="effect2_dropShadow_2365_1076"/>
<feBlend mode="normal" in="SourceGraphic" in2="effect2_dropShadow_2365_1076" result="shape"/>
<feColorMatrix in="SourceAlpha" type="matrix" values="0 0 0 0 0 0 0 0 0 0 0 0 0 0 0 0 0 0 127 0" result="hardAlpha"/>
<feOffset dy="1"/>
<feComposite in2="hardAlpha" operator="arithmetic" k2="-1" k3="1"/>
<feColorMatrix type="matrix" values="0 0 0 0 1 0 0 0 0 1 0 0 0 0 1 0 0 0 0.12 0"/>
<feBlend mode="normal" in2="shape" result="effect3_innerShadow_2365_1076"/>
<feColorMatrix in="SourceAlpha" type="matrix" values="0 0 0 0 0 0 0 0 0 0 0 0 0 0 0 0 0 0 127 0" result="hardAlpha"/>
<feOffset dy="-2"/>
<feComposite in2="hardAlpha" operator="arithmetic" k2="-1" k3="1"/>
<feColorMatrix type="matrix" values="0 0 0 0 0 0 0 0 0 0 0 0 0 0 0 0 0 0 0.25 0"/>
<feBlend mode="normal" in2="effect3_innerShadow_2365_1076" result="effect4_innerShadow_2365_1076"/>
</filter>
<linearGradient id="paint0_linear_2365_1076" x1="38" y1="8" x2="38" y2="68" gradientUnits="userSpaceOnUse">
<stop stop-color="#FEFE7D"/>
<stop offset="1" stop-color="#A9A943"/>
</linearGradient>
<linearGradient id="paint1_linear_2365_1076" x1="38" y1="13" x2="38" y2="63" gradientUnits="userSpaceOnUse">
<stop stop-color="#A2A4DA"/>
<stop offset="1" stop-color="#7072B4"/>
</linearGradient>
<linearGradient id="paint2_linear_2365_1076" x1="38" y1="13" x2="38" y2="63" gradientUnits="userSpaceOnUse">
<stop stop-color="#FEFE7D"/>
<stop offset="1" stop-color="#A9A943"/>
</linearGradient>
<linearGradient id="paint3_linear_2365_1076" x1="38.5" y1="8" x2="38.5" y2="67" gradientUnits="userSpaceOnUse">
<stop stop-color="white" stop-opacity="0.4"/>
<stop offset="1" stop-color="white" stop-opacity="0"/>
</linearGradient>
</defs>
</svg>
