<svg width="96" height="96" viewBox="0 0 96 96" fill="none" xmlns="http://www.w3.org/2000/svg">
<g filter="url(#filter0_ddii_2044_939)">
<rect x="24" y="12" width="48" height="48" rx="24" fill="url(#paint0_linear_2044_939)"/>
<rect x="24" y="12" width="48" height="48" rx="24" fill="url(#paint1_linear_2044_939)"/>
</g>
<g filter="url(#filter1_iif_2044_939)">
<rect width="33" height="33" rx="16.5" transform="matrix(1 0 0 -1 31.5 52)" fill="url(#paint2_linear_2044_939)"/>
<rect width="33" height="33" rx="16.5" transform="matrix(1 0 0 -1 31.5 52)" fill="url(#paint3_linear_2044_939)"/>
</g>
<path d="M45 56.82C45 56.82 45.688 56.9698 48 56.9698C50.312 56.9698 51 56.82 51 56.82V59.82C51 59.82 49.8388 60.0002 48 60.0002C46.1612 60.0002 45 59.82 45 59.82V56.82Z" fill="white"/>
<path d="M28.5 46.9501C28.5 46.9501 29.25 48 30.75 49.5C32.25 51 33 51.75 33 51.75V54.75C33 54.75 31.5 53.55 30 51.9C28.5 50.25 28.5 49.95 28.5 49.95V46.9501Z" fill="white"/>
<path d="M67.5 46.9501C67.5 46.9501 66.75 48 65.25 49.5C63.75 51 63 51.75 63 51.75V54.75C63 54.75 64.5 53.55 66 51.9C67.5 50.25 67.5 49.95 67.5 49.95V46.9501Z" fill="white"/>
<defs>
<filter id="filter0_ddii_2044_939" x="0" y="0" width="96" height="96" filterUnits="userSpaceOnUse" color-interpolation-filters="sRGB">
<feFlood flood-opacity="0" result="BackgroundImageFix"/>
<feColorMatrix in="SourceAlpha" type="matrix" values="0 0 0 0 0 0 0 0 0 0 0 0 0 0 0 0 0 0 127 0" result="hardAlpha"/>
<feOffset dy="1.5"/>
<feGaussianBlur stdDeviation="1.5"/>
<feColorMatrix type="matrix" values="0 0 0 0 0 0 0 0 0 0 0 0 0 0 0 0 0 0 0.4 0"/>
<feBlend mode="normal" in2="BackgroundImageFix" result="effect1_dropShadow_2044_939"/>
<feColorMatrix in="SourceAlpha" type="matrix" values="0 0 0 0 0 0 0 0 0 0 0 0 0 0 0 0 0 0 127 0" result="hardAlpha"/>
<feOffset dy="12"/>
<feGaussianBlur stdDeviation="12"/>
<feComposite in2="hardAlpha" operator="out"/>
<feColorMatrix type="matrix" values="0 0 0 0 0 0 0 0 0 0 0 0 0 0 0 0 0 0 0.25 0"/>
<feBlend mode="normal" in2="effect1_dropShadow_2044_939" result="effect2_dropShadow_2044_939"/>
<feBlend mode="normal" in="SourceGraphic" in2="effect2_dropShadow_2044_939" result="shape"/>
<feColorMatrix in="SourceAlpha" type="matrix" values="0 0 0 0 0 0 0 0 0 0 0 0 0 0 0 0 0 0 127 0" result="hardAlpha"/>
<feOffset dy="1.5"/>
<feComposite in2="hardAlpha" operator="arithmetic" k2="-1" k3="1"/>
<feColorMatrix type="matrix" values="0 0 0 0 1 0 0 0 0 1 0 0 0 0 1 0 0 0 0.12 0"/>
<feBlend mode="normal" in2="shape" result="effect3_innerShadow_2044_939"/>
<feColorMatrix in="SourceAlpha" type="matrix" values="0 0 0 0 0 0 0 0 0 0 0 0 0 0 0 0 0 0 127 0" result="hardAlpha"/>
<feOffset dy="-3"/>
<feComposite in2="hardAlpha" operator="arithmetic" k2="-1" k3="1"/>
<feColorMatrix type="matrix" values="0 0 0 0 0 0 0 0 0 0 0 0 0 0 0 0 0 0 0.25 0"/>
<feBlend mode="normal" in2="effect3_innerShadow_2044_939" result="effect4_innerShadow_2044_939"/>
</filter>
<filter id="filter1_iif_2044_939" x="28.5" y="16" width="39" height="39" filterUnits="userSpaceOnUse" color-interpolation-filters="sRGB">
<feFlood flood-opacity="0" result="BackgroundImageFix"/>
<feBlend mode="normal" in="SourceGraphic" in2="BackgroundImageFix" result="shape"/>
<feColorMatrix in="SourceAlpha" type="matrix" values="0 0 0 0 0 0 0 0 0 0 0 0 0 0 0 0 0 0 127 0" result="hardAlpha"/>
<feOffset dy="-1.5"/>
<feComposite in2="hardAlpha" operator="arithmetic" k2="-1" k3="1"/>
<feColorMatrix type="matrix" values="0 0 0 0 1 0 0 0 0 1 0 0 0 0 1 0 0 0 0.2 0"/>
<feBlend mode="normal" in2="shape" result="effect1_innerShadow_2044_939"/>
<feColorMatrix in="SourceAlpha" type="matrix" values="0 0 0 0 0 0 0 0 0 0 0 0 0 0 0 0 0 0 127 0" result="hardAlpha"/>
<feOffset dy="1.5"/>
<feComposite in2="hardAlpha" operator="arithmetic" k2="-1" k3="1"/>
<feColorMatrix type="matrix" values="0 0 0 0 0 0 0 0 0 0 0 0 0 0 0 0 0 0 0.25 0"/>
<feBlend mode="normal" in2="effect1_innerShadow_2044_939" result="effect2_innerShadow_2044_939"/>
<feGaussianBlur stdDeviation="1.5" result="effect3_foregroundBlur_2044_939"/>
</filter>
<linearGradient id="paint0_linear_2044_939" x1="48" y1="12" x2="48" y2="60" gradientUnits="userSpaceOnUse">
<stop stop-color="#FEFE7D"/>
<stop offset="1" stop-color="#A9A943"/>
</linearGradient>
<linearGradient id="paint1_linear_2044_939" x1="48" y1="12" x2="48" y2="60" gradientUnits="userSpaceOnUse">
<stop stop-color="#EFF7FE"/>
<stop offset="1" stop-color="#BBC4CE"/>
</linearGradient>
<linearGradient id="paint2_linear_2044_939" x1="16.5" y1="0" x2="16.5" y2="33" gradientUnits="userSpaceOnUse">
<stop stop-color="#FEFE7D"/>
<stop offset="1" stop-color="#A9A943"/>
</linearGradient>
<linearGradient id="paint3_linear_2044_939" x1="16.5" y1="0" x2="16.5" y2="33" gradientUnits="userSpaceOnUse">
<stop stop-color="#EFF7FE"/>
<stop offset="1" stop-color="#BBC4CE"/>
</linearGradient>
</defs>
</svg>
