<svg width="24" height="25" viewBox="0 0 24 25" fill="none" xmlns="http://www.w3.org/2000/svg">
<g filter="url(#filter0_ddi_2330_18418)">
<path d="M15.4474 3.75659C14.1991 3.75659 12.9505 4.23199 11.9999 5.18262L9.87882 7.30371C7.97757 9.20496 7.97757 12.2967 9.87882 14.198C10.4544 14.7732 11.1332 15.1712 11.8622 15.3962L12.265 14.9934C12.5275 14.7309 12.7135 14.4179 12.8144 14.0837C12.1277 13.9806 11.467 13.6651 10.9394 13.1375C9.62424 11.8223 9.62424 9.67938 10.9394 8.36426L13.0605 6.24316C14.3756 4.92804 16.5185 4.92804 17.8337 6.24316C19.1488 7.55829 19.1488 9.70123 17.8337 11.0164L16.5636 12.2864C16.6964 12.976 16.704 13.6842 16.59 14.3708C16.6511 14.315 16.7146 14.2565 16.7731 14.198L18.8942 12.0769C20.7954 10.1757 20.7954 7.08387 18.8942 5.18262C17.9436 4.23199 16.6957 3.75659 15.4474 3.75659ZM12.1383 8.75684L11.7355 9.1604C11.473 9.4229 11.2871 9.73521 11.1862 10.0693C11.8728 10.1725 12.5328 10.4887 13.0605 11.0164C14.3756 12.3315 14.3756 14.4737 13.0605 15.7888L10.9394 17.9106C9.62424 19.2258 7.4813 19.2258 6.16617 17.9106C4.85105 16.5955 4.85105 14.4526 6.16617 13.1375L7.43619 11.8674C7.30344 11.1778 7.29582 10.4696 7.40982 9.78296C7.3487 9.83883 7.28522 9.89731 7.22672 9.95581L5.10562 12.0769C3.20438 13.9782 3.20438 17.0699 5.10562 18.9712C7.00688 20.8724 10.0987 20.8724 11.9999 18.9712L14.121 16.8501C16.0223 14.9488 16.0223 11.8571 14.121 9.95581C13.5454 9.38056 12.867 8.98221 12.1383 8.75684Z" fill="#EDEDED" fill-opacity="0.7" style="mix-blend-mode:luminosity" shape-rendering="crispEdges"/>
</g>
<defs>
<filter id="filter0_ddi_2330_18418" x="-12.3203" y="-4.24341" width="48.6405" height="48.6405" filterUnits="userSpaceOnUse" color-interpolation-filters="sRGB">
<feFlood flood-opacity="0" result="BackgroundImageFix"/>
<feColorMatrix in="SourceAlpha" type="matrix" values="0 0 0 0 0 0 0 0 0 0 0 0 0 0 0 0 0 0 127 0" result="hardAlpha"/>
<feOffset dy="1"/>
<feGaussianBlur stdDeviation="1"/>
<feColorMatrix type="matrix" values="0 0 0 0 0 0 0 0 0 0 0 0 0 0 0 0 0 0 0.4 0"/>
<feBlend mode="normal" in2="BackgroundImageFix" result="effect1_dropShadow_2330_18418"/>
<feColorMatrix in="SourceAlpha" type="matrix" values="0 0 0 0 0 0 0 0 0 0 0 0 0 0 0 0 0 0 127 0" result="hardAlpha"/>
<feOffset dy="8"/>
<feGaussianBlur stdDeviation="8"/>
<feComposite in2="hardAlpha" operator="out"/>
<feColorMatrix type="matrix" values="0 0 0 0 0 0 0 0 0 0 0 0 0 0 0 0 0 0 0.25 0"/>
<feBlend mode="normal" in2="effect1_dropShadow_2330_18418" result="effect2_dropShadow_2330_18418"/>
<feBlend mode="normal" in="SourceGraphic" in2="effect2_dropShadow_2330_18418" result="shape"/>
<feColorMatrix in="SourceAlpha" type="matrix" values="0 0 0 0 0 0 0 0 0 0 0 0 0 0 0 0 0 0 127 0" result="hardAlpha"/>
<feOffset dy="1"/>
<feComposite in2="hardAlpha" operator="arithmetic" k2="-1" k3="1"/>
<feColorMatrix type="matrix" values="0 0 0 0 1 0 0 0 0 1 0 0 0 0 1 0 0 0 0.7 0"/>
<feBlend mode="normal" in2="shape" result="effect3_innerShadow_2330_18418"/>
</filter>
</defs>
</svg>
