<svg width="78" height="93" viewBox="0 0 78 93" fill="none" xmlns="http://www.w3.org/2000/svg">
<g filter="url(#filter0_di_1590_869)">
<circle cx="39" cy="35" r="24" stroke="#EDEDED" stroke-opacity="0.7" stroke-width="4" style="mix-blend-mode:luminosity"/>
</g>
<g filter="url(#filter1_di_1590_869)">
<circle cx="39" cy="35" r="32" stroke="#EDEDED" stroke-opacity="0.7" stroke-width="3.6" stroke-linecap="round" stroke-dasharray="7.38 7.38" style="mix-blend-mode:luminosity"/>
</g>
<g filter="url(#filter2_bd_1590_869)">
<rect x="17" y="13" width="44" height="44" rx="22" fill="#808080" fill-opacity="0.3" style="mix-blend-mode:luminosity" shape-rendering="crispEdges"/>
<g filter="url(#filter3_bddi_1590_869)">
<path d="M29.2046 37.5117C29.2046 36.5801 29.4155 35.7363 29.8374 34.9805C30.2681 34.2246 30.8218 33.5083 31.4985 32.8315C32.1841 32.146 32.918 31.4604 33.7002 30.7749C34.4824 30.0806 35.2339 29.3379 35.9546 28.5469C36.6841 27.7471 37.2993 26.8506 37.8003 25.8574C37.9146 25.6289 38.064 25.4355 38.2485 25.2773C38.4419 25.1191 38.6924 25.04 39 25.04C39.2988 25.04 39.5405 25.1191 39.7251 25.2773C39.9185 25.4355 40.0767 25.6289 40.1997 25.8574C40.6919 26.8506 41.2983 27.7471 42.019 28.5469C42.7485 29.3379 43.5044 30.0806 44.2866 30.7749C45.0688 31.4604 45.7983 32.146 46.4751 32.8315C47.1606 33.5083 47.7144 34.2246 48.1362 34.9805C48.5669 35.7363 48.7822 36.5801 48.7822 37.5117C48.7822 38.3291 48.5845 39.0718 48.189 39.7397C47.7935 40.4077 47.2617 40.9438 46.5938 41.3481C45.9258 41.7437 45.1831 41.9414 44.3657 41.9414C43.6978 41.9414 43.043 41.8228 42.4014 41.5854C41.7598 41.3394 41.2896 40.9087 40.9907 40.2935H40.8853C40.8677 40.6274 40.938 40.9482 41.0962 41.2559C41.2544 41.5635 41.4521 41.8491 41.6895 42.1128C41.9268 42.3677 42.1597 42.6006 42.3882 42.8115C42.6167 43.0225 42.7969 43.1982 42.9287 43.3389C43.1221 43.541 43.2407 43.7563 43.2847 43.9849C43.3286 44.2046 43.311 44.4155 43.2319 44.6177C43.1616 44.811 43.0386 44.9692 42.8628 45.0923C42.6958 45.2153 42.4893 45.2769 42.2432 45.2769H35.7437C35.4976 45.2769 35.2866 45.2153 35.1108 45.0923C34.9438 44.9692 34.8208 44.811 34.7417 44.6177C34.6714 44.4155 34.6582 44.2046 34.7021 43.9849C34.7461 43.7563 34.8647 43.541 35.0581 43.3389C35.1899 43.1982 35.3701 43.0225 35.5986 42.8115C35.8359 42.6006 36.0688 42.3677 36.2974 42.1128C36.5347 41.8491 36.7324 41.5635 36.8906 41.2559C37.0488 40.9482 37.1191 40.6274 37.1016 40.2935H36.9961C36.6973 40.9087 36.2271 41.3394 35.5854 41.5854C34.9438 41.8228 34.2935 41.9414 33.6343 41.9414C32.8081 41.9414 32.061 41.7437 31.3931 41.3481C30.7251 40.9438 30.1934 40.4077 29.7979 39.7397C29.4023 39.0718 29.2046 38.3291 29.2046 37.5117Z" fill="#EDEDED" fill-opacity="0.7" style="mix-blend-mode:luminosity" shape-rendering="crispEdges"/>
</g>
</g>
<g filter="url(#filter4_di_1590_869)">
<circle cx="39.0003" cy="17.9334" r="1.21905" fill="#EDEDED" fill-opacity="0.7" style="mix-blend-mode:luminosity"/>
</g>
<g filter="url(#filter5_di_1590_869)">
<circle cx="39.0003" cy="52.0667" r="1.21905" fill="#EDEDED" fill-opacity="0.7" style="mix-blend-mode:luminosity"/>
</g>
<g filter="url(#filter6_di_1590_869)">
<circle cx="21.9339" cy="35.0001" r="1.21905" fill="#EDEDED" fill-opacity="0.7" style="mix-blend-mode:luminosity"/>
</g>
<g filter="url(#filter7_di_1590_869)">
<circle cx="56.0667" cy="35.0001" r="1.21905" fill="#EDEDED" fill-opacity="0.7" style="mix-blend-mode:luminosity"/>
</g>
<g filter="url(#filter8_di_1590_869)">
<circle cx="39.0416" cy="35" r="17" transform="rotate(-45 39.0416 35)" stroke="#EDEDED" stroke-opacity="0.7" stroke-width="3" stroke-linecap="round" stroke-dasharray="9.45 9.45" style="mix-blend-mode:luminosity"/>
</g>
<g filter="url(#filter9_di_1590_869)">
<path d="M5.12681 78.9783L2.85322 77.5018L7.21034 70.7924L9.52978 72.2987C10.1959 72.7313 10.6809 73.2372 10.9848 73.8164C11.2922 74.3949 11.4124 75.0179 11.3453 75.6854C11.2782 76.3529 11.0185 77.035 10.566 77.7318C10.1122 78.4306 9.59216 78.9469 9.00605 79.2804C8.42211 79.6154 7.7994 79.759 7.1379 79.7114C6.47859 79.6652 5.80823 79.4208 5.12681 78.9783ZM4.75157 77.2395L5.75077 77.8884C6.21815 78.1919 6.66331 78.3599 7.08626 78.3923C7.51063 78.4226 7.91207 78.3185 8.29058 78.0799C8.6705 77.8391 9.02712 77.4621 9.36043 76.9488C9.69374 76.4356 9.89169 75.9586 9.95428 75.518C10.0183 75.0752 9.95092 74.6697 9.75218 74.3015C9.55705 73.9326 9.23234 73.6006 8.77806 73.3056L7.74283 72.6333L4.75157 77.2395Z" fill="#EDEDED" fill-opacity="0.7" style="mix-blend-mode:luminosity"/>
</g>
<g filter="url(#filter10_di_1590_869)">
<path d="M16.4999 84.7529L18.8389 77.1025L23.8147 78.6237L23.4595 79.7855L19.8696 78.6879L19.2346 80.7649L22.5667 81.7836L22.2115 82.9454L18.8794 81.9267L18.241 84.0148L21.8608 85.1215L21.5056 86.2833L16.4999 84.7529Z" fill="#EDEDED" fill-opacity="0.7" style="mix-blend-mode:luminosity"/>
</g>
<g filter="url(#filter11_di_1590_869)">
<path d="M29.8406 88.0797L28.2959 87.9987L31.5271 80.1571L33.3137 80.2507L35.7115 88.3873L34.1667 88.3064L32.3658 81.8439L32.3034 81.8406L29.8406 88.0797ZM30.0555 84.9499L34.2685 85.1707L34.2076 86.3332L29.9946 86.1124L30.0555 84.9499Z" fill="#EDEDED" fill-opacity="0.7" style="mix-blend-mode:luminosity"/>
</g>
<g filter="url(#filter12_di_1590_869)">
<path d="M43.4233 88.2886L43.0046 80.2995L44.4518 80.2237L44.807 86.9996L48.3256 86.8151L48.3891 88.0283L43.4233 88.2886Z" fill="#EDEDED" fill-opacity="0.7" style="mix-blend-mode:luminosity"/>
</g>
<g filter="url(#filter13_di_1590_869)">
<path d="M55.8664 86.245L53.5275 78.5946L58.5032 77.0734L58.8584 78.2351L55.2685 79.3327L55.9035 81.4096L59.2357 80.3909L59.5909 81.5527L56.2587 82.5714L56.8971 84.6596L60.5169 83.5529L60.8721 84.7147L55.8664 86.245Z" fill="#EDEDED" fill-opacity="0.7" style="mix-blend-mode:luminosity"/>
</g>
<g filter="url(#filter14_di_1590_869)">
<path d="M69.3743 80.7612L65.0172 74.0518L67.5332 72.4179C68.0487 72.0832 68.5393 71.8919 69.005 71.844C69.4729 71.7948 69.9014 71.8736 70.2904 72.0805C70.6802 72.2839 71.0141 72.5996 71.2921 73.0277C71.5715 73.4579 71.7223 73.8909 71.7445 74.3268C71.7674 74.759 71.658 75.1763 71.4163 75.5786C71.1731 75.9787 70.7938 76.3461 70.2783 76.6808L68.4863 77.8446L67.8311 76.8356L69.4593 75.7782C69.7607 75.5825 69.9805 75.3807 70.1188 75.1729C70.2557 74.9629 70.3175 74.7473 70.3043 74.5261C70.2918 74.3013 70.2083 74.0699 70.0537 73.8318C69.8991 73.5938 69.7202 73.4212 69.5171 73.314C69.3126 73.2046 69.0858 73.1687 68.8369 73.2061C68.5866 73.2414 68.3096 73.3576 68.006 73.5547L66.8922 74.2781L70.5897 79.9719L69.3743 80.7612ZM70.8661 75.4701L74.5014 77.4316L73.1451 78.3124L69.5393 76.3317L70.8661 75.4701Z" fill="#EDEDED" fill-opacity="0.7" style="mix-blend-mode:luminosity"/>
</g>
<defs>
<filter id="filter0_di_1590_869" x="11" y="8" width="56" height="56" filterUnits="userSpaceOnUse" color-interpolation-filters="sRGB">
<feFlood flood-opacity="0" result="BackgroundImageFix"/>
<feColorMatrix in="SourceAlpha" type="matrix" values="0 0 0 0 0 0 0 0 0 0 0 0 0 0 0 0 0 0 127 0" result="hardAlpha"/>
<feOffset dy="1"/>
<feGaussianBlur stdDeviation="1"/>
<feColorMatrix type="matrix" values="0 0 0 0 0 0 0 0 0 0 0 0 0 0 0 0 0 0 0.4 0"/>
<feBlend mode="normal" in2="BackgroundImageFix" result="effect1_dropShadow_1590_869"/>
<feBlend mode="normal" in="SourceGraphic" in2="effect1_dropShadow_1590_869" result="shape"/>
<feColorMatrix in="SourceAlpha" type="matrix" values="0 0 0 0 0 0 0 0 0 0 0 0 0 0 0 0 0 0 127 0" result="hardAlpha"/>
<feOffset dy="1"/>
<feComposite in2="hardAlpha" operator="arithmetic" k2="-1" k3="1"/>
<feColorMatrix type="matrix" values="0 0 0 0 1 0 0 0 0 1 0 0 0 0 1 0 0 0 0.7 0"/>
<feBlend mode="normal" in2="shape" result="effect2_innerShadow_1590_869"/>
</filter>
<filter id="filter1_di_1590_869" x="3.19922" y="0.199951" width="71.6016" height="71.6001" filterUnits="userSpaceOnUse" color-interpolation-filters="sRGB">
<feFlood flood-opacity="0" result="BackgroundImageFix"/>
<feColorMatrix in="SourceAlpha" type="matrix" values="0 0 0 0 0 0 0 0 0 0 0 0 0 0 0 0 0 0 127 0" result="hardAlpha"/>
<feOffset dy="1"/>
<feGaussianBlur stdDeviation="1"/>
<feColorMatrix type="matrix" values="0 0 0 0 0 0 0 0 0 0 0 0 0 0 0 0 0 0 0.4 0"/>
<feBlend mode="normal" in2="BackgroundImageFix" result="effect1_dropShadow_1590_869"/>
<feBlend mode="normal" in="SourceGraphic" in2="effect1_dropShadow_1590_869" result="shape"/>
<feColorMatrix in="SourceAlpha" type="matrix" values="0 0 0 0 0 0 0 0 0 0 0 0 0 0 0 0 0 0 127 0" result="hardAlpha"/>
<feOffset dy="1"/>
<feComposite in2="hardAlpha" operator="arithmetic" k2="-1" k3="1"/>
<feColorMatrix type="matrix" values="0 0 0 0 1 0 0 0 0 1 0 0 0 0 1 0 0 0 0.7 0"/>
<feBlend mode="normal" in2="shape" result="effect2_innerShadow_1590_869"/>
</filter>
<filter id="filter2_bd_1590_869" x="-5" y="-9" width="88" height="88" filterUnits="userSpaceOnUse" color-interpolation-filters="sRGB">
<feFlood flood-opacity="0" result="BackgroundImageFix"/>
<feGaussianBlur in="BackgroundImageFix" stdDeviation="11"/>
<feComposite in2="SourceAlpha" operator="in" result="effect1_backgroundBlur_1590_869"/>
<feColorMatrix in="SourceAlpha" type="matrix" values="0 0 0 0 0 0 0 0 0 0 0 0 0 0 0 0 0 0 127 0" result="hardAlpha"/>
<feOffset dy="1"/>
<feGaussianBlur stdDeviation="1"/>
<feComposite in2="hardAlpha" operator="out"/>
<feColorMatrix type="matrix" values="0 0 0 0 0 0 0 0 0 0 0 0 0 0 0 0 0 0 0.12 0"/>
<feBlend mode="normal" in2="effect1_backgroundBlur_1590_869" result="effect2_dropShadow_1590_869"/>
<feBlend mode="normal" in="SourceGraphic" in2="effect2_dropShadow_1590_869" result="shape"/>
</filter>
<filter id="filter3_bddi_1590_869" x="7.20508" y="3.04004" width="63.5762" height="72.2368" filterUnits="userSpaceOnUse" color-interpolation-filters="sRGB">
<feFlood flood-opacity="0" result="BackgroundImageFix"/>
<feGaussianBlur in="BackgroundImageFix" stdDeviation="11"/>
<feComposite in2="SourceAlpha" operator="in" result="effect1_backgroundBlur_1590_869"/>
<feColorMatrix in="SourceAlpha" type="matrix" values="0 0 0 0 0 0 0 0 0 0 0 0 0 0 0 0 0 0 127 0" result="hardAlpha"/>
<feOffset dy="1"/>
<feGaussianBlur stdDeviation="1"/>
<feColorMatrix type="matrix" values="0 0 0 0 0 0 0 0 0 0 0 0 0 0 0 0 0 0 0.4 0"/>
<feBlend mode="normal" in2="effect1_backgroundBlur_1590_869" result="effect2_dropShadow_1590_869"/>
<feColorMatrix in="SourceAlpha" type="matrix" values="0 0 0 0 0 0 0 0 0 0 0 0 0 0 0 0 0 0 127 0" result="hardAlpha"/>
<feOffset dy="10"/>
<feGaussianBlur stdDeviation="10"/>
<feComposite in2="hardAlpha" operator="out"/>
<feColorMatrix type="matrix" values="0 0 0 0 0 0 0 0 0 0 0 0 0 0 0 0 0 0 0.2 0"/>
<feBlend mode="normal" in2="effect2_dropShadow_1590_869" result="effect3_dropShadow_1590_869"/>
<feBlend mode="normal" in="SourceGraphic" in2="effect3_dropShadow_1590_869" result="shape"/>
<feColorMatrix in="SourceAlpha" type="matrix" values="0 0 0 0 0 0 0 0 0 0 0 0 0 0 0 0 0 0 127 0" result="hardAlpha"/>
<feOffset dy="2"/>
<feComposite in2="hardAlpha" operator="arithmetic" k2="-1" k3="1"/>
<feColorMatrix type="matrix" values="0 0 0 0 1 0 0 0 0 1 0 0 0 0 1 0 0 0 0.7 0"/>
<feBlend mode="normal" in2="shape" result="effect4_innerShadow_1590_869"/>
</filter>
<filter id="filter4_di_1590_869" x="36.7812" y="16.7144" width="4.4375" height="4.43799" filterUnits="userSpaceOnUse" color-interpolation-filters="sRGB">
<feFlood flood-opacity="0" result="BackgroundImageFix"/>
<feColorMatrix in="SourceAlpha" type="matrix" values="0 0 0 0 0 0 0 0 0 0 0 0 0 0 0 0 0 0 127 0" result="hardAlpha"/>
<feOffset dy="1"/>
<feGaussianBlur stdDeviation="0.5"/>
<feColorMatrix type="matrix" values="0 0 0 0 0 0 0 0 0 0 0 0 0 0 0 0 0 0 0.4 0"/>
<feBlend mode="normal" in2="BackgroundImageFix" result="effect1_dropShadow_1590_869"/>
<feBlend mode="normal" in="SourceGraphic" in2="effect1_dropShadow_1590_869" result="shape"/>
<feColorMatrix in="SourceAlpha" type="matrix" values="0 0 0 0 0 0 0 0 0 0 0 0 0 0 0 0 0 0 127 0" result="hardAlpha"/>
<feOffset dy="0.5"/>
<feComposite in2="hardAlpha" operator="arithmetic" k2="-1" k3="1"/>
<feColorMatrix type="matrix" values="0 0 0 0 1 0 0 0 0 1 0 0 0 0 1 0 0 0 0.7 0"/>
<feBlend mode="normal" in2="shape" result="effect2_innerShadow_1590_869"/>
</filter>
<filter id="filter5_di_1590_869" x="36.7812" y="50.8477" width="4.4375" height="4.43799" filterUnits="userSpaceOnUse" color-interpolation-filters="sRGB">
<feFlood flood-opacity="0" result="BackgroundImageFix"/>
<feColorMatrix in="SourceAlpha" type="matrix" values="0 0 0 0 0 0 0 0 0 0 0 0 0 0 0 0 0 0 127 0" result="hardAlpha"/>
<feOffset dy="1"/>
<feGaussianBlur stdDeviation="0.5"/>
<feColorMatrix type="matrix" values="0 0 0 0 0 0 0 0 0 0 0 0 0 0 0 0 0 0 0.4 0"/>
<feBlend mode="normal" in2="BackgroundImageFix" result="effect1_dropShadow_1590_869"/>
<feBlend mode="normal" in="SourceGraphic" in2="effect1_dropShadow_1590_869" result="shape"/>
<feColorMatrix in="SourceAlpha" type="matrix" values="0 0 0 0 0 0 0 0 0 0 0 0 0 0 0 0 0 0 127 0" result="hardAlpha"/>
<feOffset dy="0.5"/>
<feComposite in2="hardAlpha" operator="arithmetic" k2="-1" k3="1"/>
<feColorMatrix type="matrix" values="0 0 0 0 1 0 0 0 0 1 0 0 0 0 1 0 0 0 0.7 0"/>
<feBlend mode="normal" in2="shape" result="effect2_innerShadow_1590_869"/>
</filter>
<filter id="filter6_di_1590_869" x="19.7148" y="33.781" width="4.4375" height="4.43799" filterUnits="userSpaceOnUse" color-interpolation-filters="sRGB">
<feFlood flood-opacity="0" result="BackgroundImageFix"/>
<feColorMatrix in="SourceAlpha" type="matrix" values="0 0 0 0 0 0 0 0 0 0 0 0 0 0 0 0 0 0 127 0" result="hardAlpha"/>
<feOffset dy="1"/>
<feGaussianBlur stdDeviation="0.5"/>
<feColorMatrix type="matrix" values="0 0 0 0 0 0 0 0 0 0 0 0 0 0 0 0 0 0 0.4 0"/>
<feBlend mode="normal" in2="BackgroundImageFix" result="effect1_dropShadow_1590_869"/>
<feBlend mode="normal" in="SourceGraphic" in2="effect1_dropShadow_1590_869" result="shape"/>
<feColorMatrix in="SourceAlpha" type="matrix" values="0 0 0 0 0 0 0 0 0 0 0 0 0 0 0 0 0 0 127 0" result="hardAlpha"/>
<feOffset dy="0.5"/>
<feComposite in2="hardAlpha" operator="arithmetic" k2="-1" k3="1"/>
<feColorMatrix type="matrix" values="0 0 0 0 1 0 0 0 0 1 0 0 0 0 1 0 0 0 0.7 0"/>
<feBlend mode="normal" in2="shape" result="effect2_innerShadow_1590_869"/>
</filter>
<filter id="filter7_di_1590_869" x="53.8477" y="33.781" width="4.4375" height="4.43799" filterUnits="userSpaceOnUse" color-interpolation-filters="sRGB">
<feFlood flood-opacity="0" result="BackgroundImageFix"/>
<feColorMatrix in="SourceAlpha" type="matrix" values="0 0 0 0 0 0 0 0 0 0 0 0 0 0 0 0 0 0 127 0" result="hardAlpha"/>
<feOffset dy="1"/>
<feGaussianBlur stdDeviation="0.5"/>
<feColorMatrix type="matrix" values="0 0 0 0 0 0 0 0 0 0 0 0 0 0 0 0 0 0 0.4 0"/>
<feBlend mode="normal" in2="BackgroundImageFix" result="effect1_dropShadow_1590_869"/>
<feBlend mode="normal" in="SourceGraphic" in2="effect1_dropShadow_1590_869" result="shape"/>
<feColorMatrix in="SourceAlpha" type="matrix" values="0 0 0 0 0 0 0 0 0 0 0 0 0 0 0 0 0 0 127 0" result="hardAlpha"/>
<feOffset dy="0.5"/>
<feComposite in2="hardAlpha" operator="arithmetic" k2="-1" k3="1"/>
<feColorMatrix type="matrix" values="0 0 0 0 1 0 0 0 0 1 0 0 0 0 1 0 0 0 0.7 0"/>
<feBlend mode="normal" in2="shape" result="effect2_innerShadow_1590_869"/>
</filter>
<filter id="filter8_di_1590_869" x="19.832" y="16.7896" width="38.4199" height="38.4209" filterUnits="userSpaceOnUse" color-interpolation-filters="sRGB">
<feFlood flood-opacity="0" result="BackgroundImageFix"/>
<feColorMatrix in="SourceAlpha" type="matrix" values="0 0 0 0 0 0 0 0 0 0 0 0 0 0 0 0 0 0 127 0" result="hardAlpha"/>
<feOffset dy="1"/>
<feGaussianBlur stdDeviation="1"/>
<feColorMatrix type="matrix" values="0 0 0 0 0 0 0 0 0 0 0 0 0 0 0 0 0 0 0.4 0"/>
<feBlend mode="normal" in2="BackgroundImageFix" result="effect1_dropShadow_1590_869"/>
<feBlend mode="normal" in="SourceGraphic" in2="effect1_dropShadow_1590_869" result="shape"/>
<feColorMatrix in="SourceAlpha" type="matrix" values="0 0 0 0 0 0 0 0 0 0 0 0 0 0 0 0 0 0 127 0" result="hardAlpha"/>
<feOffset dy="1"/>
<feComposite in2="hardAlpha" operator="arithmetic" k2="-1" k3="1"/>
<feColorMatrix type="matrix" values="0 0 0 0 1 0 0 0 0 1 0 0 0 0 1 0 0 0 0.7 0"/>
<feBlend mode="normal" in2="shape" result="effect2_innerShadow_1590_869"/>
</filter>
<filter id="filter9_di_1590_869" x="0.853516" y="69.7925" width="13.8867" height="14.3005" filterUnits="userSpaceOnUse" color-interpolation-filters="sRGB">
<feFlood flood-opacity="0" result="BackgroundImageFix"/>
<feColorMatrix in="SourceAlpha" type="matrix" values="0 0 0 0 0 0 0 0 0 0 0 0 0 0 0 0 0 0 127 0" result="hardAlpha"/>
<feOffset dy="1"/>
<feGaussianBlur stdDeviation="1"/>
<feColorMatrix type="matrix" values="0 0 0 0 0 0 0 0 0 0 0 0 0 0 0 0 0 0 0.4 0"/>
<feBlend mode="normal" in2="BackgroundImageFix" result="effect1_dropShadow_1590_869"/>
<feBlend mode="normal" in="SourceGraphic" in2="effect1_dropShadow_1590_869" result="shape"/>
<feColorMatrix in="SourceAlpha" type="matrix" values="0 0 0 0 0 0 0 0 0 0 0 0 0 0 0 0 0 0 127 0" result="hardAlpha"/>
<feOffset dy="1"/>
<feComposite in2="hardAlpha" operator="arithmetic" k2="-1" k3="1"/>
<feColorMatrix type="matrix" values="0 0 0 0 1 0 0 0 0 1 0 0 0 0 1 0 0 0 0.7 0"/>
<feBlend mode="normal" in2="shape" result="effect2_innerShadow_1590_869"/>
</filter>
<filter id="filter10_di_1590_869" x="14.5" y="76.1025" width="11.3438" height="13.1807" filterUnits="userSpaceOnUse" color-interpolation-filters="sRGB">
<feFlood flood-opacity="0" result="BackgroundImageFix"/>
<feColorMatrix in="SourceAlpha" type="matrix" values="0 0 0 0 0 0 0 0 0 0 0 0 0 0 0 0 0 0 127 0" result="hardAlpha"/>
<feOffset dy="1"/>
<feGaussianBlur stdDeviation="1"/>
<feColorMatrix type="matrix" values="0 0 0 0 0 0 0 0 0 0 0 0 0 0 0 0 0 0 0.4 0"/>
<feBlend mode="normal" in2="BackgroundImageFix" result="effect1_dropShadow_1590_869"/>
<feBlend mode="normal" in="SourceGraphic" in2="effect1_dropShadow_1590_869" result="shape"/>
<feColorMatrix in="SourceAlpha" type="matrix" values="0 0 0 0 0 0 0 0 0 0 0 0 0 0 0 0 0 0 127 0" result="hardAlpha"/>
<feOffset dy="1"/>
<feComposite in2="hardAlpha" operator="arithmetic" k2="-1" k3="1"/>
<feColorMatrix type="matrix" values="0 0 0 0 1 0 0 0 0 1 0 0 0 0 1 0 0 0 0.7 0"/>
<feBlend mode="normal" in2="shape" result="effect2_innerShadow_1590_869"/>
</filter>
<filter id="filter11_di_1590_869" x="26.2949" y="79.0098" width="11.8359" height="12.3777" filterUnits="userSpaceOnUse" color-interpolation-filters="sRGB">
<feFlood flood-opacity="0" result="BackgroundImageFix"/>
<feColorMatrix in="SourceAlpha" type="matrix" values="0 0 0 0 0 0 0 0 0 0 0 0 0 0 0 0 0 0 127 0" result="hardAlpha"/>
<feOffset dy="1"/>
<feGaussianBlur stdDeviation="1"/>
<feColorMatrix type="matrix" values="0 0 0 0 0 0 0 0 0 0 0 0 0 0 0 0 0 0 0.4 0"/>
<feBlend mode="normal" in2="BackgroundImageFix" result="effect1_dropShadow_1590_869"/>
<feBlend mode="normal" in="SourceGraphic" in2="effect1_dropShadow_1590_869" result="shape"/>
<feColorMatrix in="SourceAlpha" type="matrix" values="0 0 0 0 0 0 0 0 0 0 0 0 0 0 0 0 0 0 127 0" result="hardAlpha"/>
<feOffset dy="1"/>
<feComposite in2="hardAlpha" operator="arithmetic" k2="-1" k3="1"/>
<feColorMatrix type="matrix" values="0 0 0 0 1 0 0 0 0 1 0 0 0 0 1 0 0 0 0.7 0"/>
<feBlend mode="normal" in2="shape" result="effect2_innerShadow_1590_869"/>
</filter>
<filter id="filter12_di_1590_869" x="41.0039" y="79.0393" width="9.38477" height="12.2493" filterUnits="userSpaceOnUse" color-interpolation-filters="sRGB">
<feFlood flood-opacity="0" result="BackgroundImageFix"/>
<feColorMatrix in="SourceAlpha" type="matrix" values="0 0 0 0 0 0 0 0 0 0 0 0 0 0 0 0 0 0 127 0" result="hardAlpha"/>
<feOffset dy="1"/>
<feGaussianBlur stdDeviation="1"/>
<feColorMatrix type="matrix" values="0 0 0 0 0 0 0 0 0 0 0 0 0 0 0 0 0 0 0.4 0"/>
<feBlend mode="normal" in2="BackgroundImageFix" result="effect1_dropShadow_1590_869"/>
<feBlend mode="normal" in="SourceGraphic" in2="effect1_dropShadow_1590_869" result="shape"/>
<feColorMatrix in="SourceAlpha" type="matrix" values="0 0 0 0 0 0 0 0 0 0 0 0 0 0 0 0 0 0 127 0" result="hardAlpha"/>
<feOffset dy="1"/>
<feComposite in2="hardAlpha" operator="arithmetic" k2="-1" k3="1"/>
<feColorMatrix type="matrix" values="0 0 0 0 1 0 0 0 0 1 0 0 0 0 1 0 0 0 0.7 0"/>
<feBlend mode="normal" in2="shape" result="effect2_innerShadow_1590_869"/>
</filter>
<filter id="filter13_di_1590_869" x="51.5273" y="76.0642" width="11.3457" height="13.1809" filterUnits="userSpaceOnUse" color-interpolation-filters="sRGB">
<feFlood flood-opacity="0" result="BackgroundImageFix"/>
<feColorMatrix in="SourceAlpha" type="matrix" values="0 0 0 0 0 0 0 0 0 0 0 0 0 0 0 0 0 0 127 0" result="hardAlpha"/>
<feOffset dy="1"/>
<feGaussianBlur stdDeviation="1"/>
<feColorMatrix type="matrix" values="0 0 0 0 0 0 0 0 0 0 0 0 0 0 0 0 0 0 0.4 0"/>
<feBlend mode="normal" in2="BackgroundImageFix" result="effect1_dropShadow_1590_869"/>
<feBlend mode="normal" in="SourceGraphic" in2="effect1_dropShadow_1590_869" result="shape"/>
<feColorMatrix in="SourceAlpha" type="matrix" values="0 0 0 0 0 0 0 0 0 0 0 0 0 0 0 0 0 0 127 0" result="hardAlpha"/>
<feOffset dy="1"/>
<feComposite in2="hardAlpha" operator="arithmetic" k2="-1" k3="1"/>
<feColorMatrix type="matrix" values="0 0 0 0 1 0 0 0 0 1 0 0 0 0 1 0 0 0 0.7 0"/>
<feBlend mode="normal" in2="shape" result="effect2_innerShadow_1590_869"/>
</filter>
<filter id="filter14_di_1590_869" x="63.0176" y="69.7222" width="13.4844" height="14.0391" filterUnits="userSpaceOnUse" color-interpolation-filters="sRGB">
<feFlood flood-opacity="0" result="BackgroundImageFix"/>
<feColorMatrix in="SourceAlpha" type="matrix" values="0 0 0 0 0 0 0 0 0 0 0 0 0 0 0 0 0 0 127 0" result="hardAlpha"/>
<feOffset dy="1"/>
<feGaussianBlur stdDeviation="1"/>
<feColorMatrix type="matrix" values="0 0 0 0 0 0 0 0 0 0 0 0 0 0 0 0 0 0 0.4 0"/>
<feBlend mode="normal" in2="BackgroundImageFix" result="effect1_dropShadow_1590_869"/>
<feBlend mode="normal" in="SourceGraphic" in2="effect1_dropShadow_1590_869" result="shape"/>
<feColorMatrix in="SourceAlpha" type="matrix" values="0 0 0 0 0 0 0 0 0 0 0 0 0 0 0 0 0 0 127 0" result="hardAlpha"/>
<feOffset dy="1"/>
<feComposite in2="hardAlpha" operator="arithmetic" k2="-1" k3="1"/>
<feColorMatrix type="matrix" values="0 0 0 0 1 0 0 0 0 1 0 0 0 0 1 0 0 0 0.7 0"/>
<feBlend mode="normal" in2="shape" result="effect2_innerShadow_1590_869"/>
</filter>
</defs>
</svg>
