<svg width="20" height="20" viewBox="0 0 20 20" fill="none" xmlns="http://www.w3.org/2000/svg">
<g clip-path="url(#clip0_2587_867)">
<path d="M16.6728 3.27445C16.6728 3.27445 19.7196 6.80321 19.7196 13.1598V14.4926C19.7196 14.4926 15.8717 17 14.6991 17L13.5615 15.3459C14.2685 15.0292 15.2328 14.4795 15.2328 14.4795L14.8803 14.2067C14.8803 14.2067 12.626 15.251 9.85933 15.251C7.0927 15.251 4.83838 14.2067 4.83838 14.2067L4.48588 14.4795C4.48588 14.4795 5.45013 15.0292 6.1572 15.3459L5.01957 17C3.84701 17 -0.000976562 14.4926 -0.000976562 14.4926V13.1598C-0.000976562 6.80321 3.04586 3.27445 3.04586 3.27445C3.04586 3.27445 5.13008 2.26541 7.05449 2L7.65186 3.13188C7.65186 3.13188 8.60091 2.91208 9.85933 2.91208C11.1178 2.91208 12.0668 3.13188 12.0668 3.13188L12.6638 2C14.5886 2.26541 16.6728 3.27445 16.6728 3.27445ZM6.57626 12.2309C7.54586 12.2309 8.33222 11.348 8.33222 10.2584C8.33222 9.16927 7.54627 8.28595 6.57626 8.28595C5.60625 8.28595 4.82031 9.16886 4.82031 10.2584C4.82031 11.348 5.60625 12.2309 6.57626 12.2309ZM13.1424 12.2309C14.112 12.2309 14.8984 11.348 14.8984 10.2584C14.8984 9.16927 14.112 8.28595 13.1424 8.28595C12.1728 8.28595 11.3865 9.16886 11.3865 10.2584C11.3865 11.348 12.1728 12.2309 13.1424 12.2309Z" fill="#EDEDED" fill-opacity="0.7" style="mix-blend-mode:luminosity"/>
</g>
<defs>
<clipPath id="clip0_2587_867">
<rect width="20" height="20" fill="white"/>
</clipPath>
</defs>
</svg>
