<svg width="64" height="64" viewBox="0 0 64 64" fill="none" xmlns="http://www.w3.org/2000/svg">
<g filter="url(#filter0_di_2835_7285)">
<path d="M42 54.9998H22C20.896 54.9998 20 54.1038 20 52.9998C20 51.8958 20.896 50.9998 22 50.9998H42C43.104 50.9998 44 51.8958 44 52.9998C44 54.1038 43.104 54.9998 42 54.9998ZM52 47.9998H12C9.794 47.9998 8 46.2058 8 43.9998V19.9998C8 17.7938 9.794 15.9998 12 15.9998H52C54.206 15.9998 56 17.7938 56 19.9998V43.9998C56 46.2058 54.206 47.9998 52 47.9998ZM12 20.9998V42.9998C12 43.5518 12.448 43.9998 13 43.9998H51C51.552 43.9998 52 43.5518 52 42.9998V20.9998C52 20.4478 51.552 19.9998 51 19.9998H13C12.448 19.9998 12 20.4478 12 20.9998Z" fill="#EDEDED" fill-opacity="0.7" style="mix-blend-mode:luminosity"/>
</g>
<defs>
<filter id="filter0_di_2835_7285" x="6" y="14.9998" width="52" height="43" filterUnits="userSpaceOnUse" color-interpolation-filters="sRGB">
<feFlood flood-opacity="0" result="BackgroundImageFix"/>
<feColorMatrix in="SourceAlpha" type="matrix" values="0 0 0 0 0 0 0 0 0 0 0 0 0 0 0 0 0 0 127 0" result="hardAlpha"/>
<feOffset dy="1"/>
<feGaussianBlur stdDeviation="1"/>
<feColorMatrix type="matrix" values="0 0 0 0 0 0 0 0 0 0 0 0 0 0 0 0 0 0 0.4 0"/>
<feBlend mode="normal" in2="BackgroundImageFix" result="effect1_dropShadow_2835_7285"/>
<feBlend mode="normal" in="SourceGraphic" in2="effect1_dropShadow_2835_7285" result="shape"/>
<feColorMatrix in="SourceAlpha" type="matrix" values="0 0 0 0 0 0 0 0 0 0 0 0 0 0 0 0 0 0 127 0" result="hardAlpha"/>
<feOffset dy="1"/>
<feComposite in2="hardAlpha" operator="arithmetic" k2="-1" k3="1"/>
<feColorMatrix type="matrix" values="0 0 0 0 1 0 0 0 0 1 0 0 0 0 1 0 0 0 1 0"/>
<feBlend mode="normal" in2="shape" result="effect2_innerShadow_2835_7285"/>
</filter>
</defs>
</svg>
