<svg width="28" height="28" viewBox="0 0 28 28" fill="none" xmlns="http://www.w3.org/2000/svg">
<path d="M11.8604 16.625C11.9252 16.625 11.9899 16.6071 12.0477 16.5716L14.0016 15.3562L15.9559 16.5716C16.0762 16.646 16.2293 16.6425 16.3457 16.5611C16.4621 16.4802 16.5185 16.3376 16.4901 16.1989L16.0119 13.8919L17.7514 12.3786C17.8577 12.2859 17.8993 12.1389 17.8564 12.0046C17.8139 11.8698 17.6954 11.7736 17.5549 11.7591L15.2463 11.5233L14.3266 9.40056C14.2702 9.2715 14.1429 9.1875 14.0016 9.1875C13.8603 9.1875 13.7329 9.2715 13.6765 9.401L12.7569 11.5238L10.4482 11.7596C10.3078 11.774 10.1892 11.8703 10.1468 12.005C10.1043 12.1398 10.1454 12.2868 10.2518 12.3791L11.9913 13.8924L11.5131 16.1993C11.4842 16.338 11.5411 16.4806 11.6574 16.5616C11.7187 16.6036 11.7896 16.625 11.8604 16.625Z" fill="#EDEDED"/>
<path d="M14 4.375C7.96906 4.375 3.0625 8.29106 3.0625 13.1049C3.0625 17.9187 7.96906 21.8343 14 21.8343C14.2826 21.8343 14.5736 21.8247 14.8676 21.8059C18.0915 24.2139 20.7349 24.5407 20.8491 24.5538C20.8823 24.5578 20.9156 24.5595 20.9488 24.5595C21.2551 24.5595 21.5421 24.3985 21.7013 24.1312C21.8772 23.8346 21.8628 23.4627 21.6646 23.1809C21.6545 23.1665 20.8044 21.9559 19.9133 20.4536C23.0361 18.858 24.9375 16.1118 24.9375 13.1049C24.9375 8.29106 20.0309 4.375 14 4.375ZM14 20.0843C8.93419 20.0843 4.8125 16.9531 4.8125 13.1044C4.8125 9.25575 8.93419 6.125 14 6.125C19.0658 6.125 23.1875 9.25619 23.1875 13.1049C23.1875 15.6686 21.3316 18.0237 18.3439 19.25C18.1125 19.3449 17.9331 19.5344 17.8504 19.7706C17.7678 20.0069 17.7901 20.2672 17.9126 20.4855C18.2403 21.0731 18.578 21.6383 18.8908 22.1423C17.9891 21.7538 16.8717 21.1492 15.6695 20.2169C15.4954 20.0813 15.2758 20.0165 15.057 20.0366C14.6961 20.0686 14.3404 20.0843 14 20.0843Z" fill="#EDEDED"/>
</svg>
