<svg width="48" height="48" viewBox="0 0 48 48" fill="none" xmlns="http://www.w3.org/2000/svg">
<g filter="url(#filter0_di_2884_2244)">
<path fill-rule="evenodd" clip-rule="evenodd" d="M37 22.977C37 17.4755 31.3925 13 24.5 13C17.6075 13 12 17.4755 12 22.977C12 26.4135 14.173 29.552 17.742 31.3755C16.74 33.0647 15.7834 34.4312 15.7418 34.4906L15.7405 34.4925C15.514 34.8145 15.4975 35.2395 15.6985 35.5785C15.8805 35.884 16.2085 36.068 16.5585 36.068C16.5965 36.068 16.6345 36.066 16.6725 36.0615C16.803 36.0465 19.824 35.673 23.5085 32.921C23.8445 32.9425 24.177 32.9535 24.5 32.9535C31.3925 32.9535 37 28.4785 37 22.977ZM27.6064 28.0191C27.6844 28.0676 27.7722 28.0916 27.86 28.0916C27.9563 28.0916 28.0525 28.0625 28.1348 28.0052C28.2923 27.8952 28.3691 27.7023 28.33 27.5144L27.5716 23.851L30.3349 21.4471C30.4794 21.3216 30.5354 21.1224 30.4775 20.94C30.4199 20.7576 30.2591 20.627 30.0688 20.6076L26.4013 20.2327L24.9404 16.8606C24.8646 16.6852 24.6913 16.5714 24.5 16.5714C24.3087 16.5714 24.1354 16.6852 24.0596 16.8606L22.5987 20.2327L18.9312 20.6076C18.7409 20.627 18.5801 20.7576 18.5225 20.94C18.4646 21.1221 18.5206 21.3216 18.6651 21.4471L21.4287 23.851L20.6703 27.5144C20.6309 27.7023 20.708 27.8952 20.8654 28.0052C21.0226 28.1148 21.2304 28.1206 21.3936 28.0191L24.5 26.0871L27.6064 28.0191Z" fill="#EDEDED" fill-opacity="0.7" shape-rendering="crispEdges"/>
</g>
<defs>
<filter id="filter0_di_2884_2244" x="9" y="11.5" width="31" height="29.068" filterUnits="userSpaceOnUse" color-interpolation-filters="sRGB">
<feFlood flood-opacity="0" result="BackgroundImageFix"/>
<feColorMatrix in="SourceAlpha" type="matrix" values="0 0 0 0 0 0 0 0 0 0 0 0 0 0 0 0 0 0 127 0" result="hardAlpha"/>
<feOffset dy="1.5"/>
<feGaussianBlur stdDeviation="1.5"/>
<feComposite in2="hardAlpha" operator="out"/>
<feColorMatrix type="matrix" values="0 0 0 0 0 0 0 0 0 0 0 0 0 0 0 0 0 0 0.12 0"/>
<feBlend mode="normal" in2="BackgroundImageFix" result="effect1_dropShadow_2884_2244"/>
<feBlend mode="normal" in="SourceGraphic" in2="effect1_dropShadow_2884_2244" result="shape"/>
<feColorMatrix in="SourceAlpha" type="matrix" values="0 0 0 0 0 0 0 0 0 0 0 0 0 0 0 0 0 0 127 0" result="hardAlpha"/>
<feOffset dy="1.5"/>
<feComposite in2="hardAlpha" operator="arithmetic" k2="-1" k3="1"/>
<feColorMatrix type="matrix" values="0 0 0 0 1 0 0 0 0 1 0 0 0 0 1 0 0 0 0.7 0"/>
<feBlend mode="normal" in2="shape" result="effect2_innerShadow_2884_2244"/>
</filter>
</defs>
</svg>
