<svg width="219" height="41" viewBox="0 0 219 41" fill="none" xmlns="http://www.w3.org/2000/svg">
<g clip-path="url(#clip0_2587_830)">
<mask id="mask0_2587_830" style="mask-type:luminance" maskUnits="userSpaceOnUse" x="0" y="0" width="219" height="41">
<path d="M218.666 0.908691H0V40.9087H218.666V0.908691Z" fill="white"/>
</mask>
<g mask="url(#mask0_2587_830)">
<path d="M69.5606 34.1427C63.7777 34.1427 57.6722 30.3621 54.6754 27.6197C51.3977 24.6191 42.3941 14.8525 42.3543 14.8089C36.4499 8.22127 28.511 0.908691 20.5911 0.908691C11.0523 0.908691 2.73196 7.51526 0.568359 16.2665C0.733476 15.6895 3.76631 7.67278 15.1499 7.67278C20.9328 7.67278 27.0383 11.4534 30.035 14.1959C33.3127 17.1964 42.3163 26.963 42.3562 27.0066C48.2605 33.5942 56.1994 40.9068 64.1212 40.9068C73.66 40.9068 81.9785 34.3002 84.144 25.5491C83.9789 26.126 80.946 34.1427 69.5625 34.1427H69.5606Z" fill="#29AAE1"/>
<path d="M42.3534 27.0086C42.3326 26.984 39.74 24.1732 36.8325 21.1062C35.261 22.9718 32.9968 25.5131 30.3948 27.7924C25.5438 32.0436 22.3914 32.9358 20.5884 32.9358C13.7864 32.9358 8.23691 27.54 8.23691 20.9088C8.23691 14.2776 13.7788 8.92356 20.5884 8.88181C20.8351 8.88181 21.135 8.90648 21.4956 8.97101C19.4497 8.18528 17.2766 7.67285 15.1471 7.67285C3.76737 7.67285 0.73454 15.6858 0.567525 16.2666C0.199334 17.7583 0.00195312 19.3108 0.00195312 20.9088C0.00195312 31.9375 9.09855 40.9088 20.4423 40.9088C25.1718 40.9088 30.4688 38.4852 35.9234 33.7025C38.5026 31.4421 40.7383 29.0242 42.418 27.0808C42.3971 27.0561 42.3743 27.0333 42.3534 27.0086Z" fill="url(#paint0_linear_2587_830)"/>
<path d="M42.3536 14.8089C42.3745 14.8335 44.967 17.6443 47.8746 20.7113C49.446 18.8457 51.7102 16.3044 54.3122 14.025C59.1632 9.77375 62.3156 8.88174 64.1186 8.88174C70.9207 8.88174 76.4701 14.2775 76.4701 20.9087C76.4701 27.502 70.9283 32.8939 64.1186 32.9357C63.8719 32.9357 63.572 32.911 63.2114 32.8464C65.2574 33.6322 67.4305 34.1446 69.5599 34.1446C80.9416 34.1446 83.9744 26.1317 84.1414 25.5509C84.5096 24.0592 84.707 22.5067 84.707 20.9087C84.707 9.88003 75.4623 0.908691 64.1186 0.908691C59.3891 0.908691 54.2401 3.3323 48.7837 8.11499C46.2044 10.3754 43.9687 12.7933 42.2891 14.7368C42.3099 14.7614 42.3327 14.7842 42.3536 14.8089Z" fill="url(#paint1_linear_2587_830)"/>
<path d="M93.9102 18.5059V1.4248H98.5125V18.5059H93.9102Z" fill="white"/>
<path d="M111.256 18.5059L105.329 8.3635V18.5059H100.873V1.4248H106.077L111.401 10.6998V1.4248H115.882V18.5059H111.256Z" fill="white"/>
<path d="M126.29 5.68937V18.5059H121.761V5.68937H116.846V1.4248H131.228V5.68937H126.29Z" fill="white"/>
<path d="M132.193 18.5059V1.4248H143.131V5.32687H136.674V8.02568H142.552V11.7835H136.674V14.5298H143.178V18.504H132.193V18.5059Z" fill="white"/>
<path d="M144.937 18.5059V1.4248H152.14C155.609 1.4248 157.873 3.73834 157.873 6.91731C157.873 9.23084 156.596 10.9409 154.717 11.6867L157.946 18.504H153.055L150.356 12.3131H149.416V18.504H144.936L144.937 18.5059ZM151.297 8.84557C152.647 8.84557 153.345 8.07502 153.345 6.99133C153.345 5.90763 152.647 5.15986 151.297 5.15986H149.418V8.84557H151.297Z" fill="white"/>
<path d="M169.559 18.5059L163.632 8.3635V18.5059H159.176V1.4248H164.38L169.703 10.6998V1.4248H174.184V18.5059H169.559Z" fill="white"/>
<path d="M176.156 18.5059V1.4248H187.094V5.32687H180.637V8.02568H186.515V11.7835H180.637V14.5298H187.141V18.504H176.156V18.5059Z" fill="white"/>
<path d="M197.336 5.68937V18.5059H192.808V5.68937H187.893V1.4248H202.275V5.68937H197.336Z" fill="white"/>
<path d="M96.8855 31.6071C96.8855 34.4502 98.9087 36.0881 100.981 36.0881C103.342 36.0881 104.354 34.6191 104.716 33.4139L108.956 34.6419C108.282 37.1718 106.016 40.4969 100.958 40.4969C96.2118 40.4969 92.2129 37.0522 92.2129 31.6318C92.2129 26.2114 96.2839 22.6946 100.911 22.6946C105.826 22.6946 108.066 25.6819 108.764 28.2365L104.597 29.658C104.283 28.5249 103.369 27.0313 100.958 27.0313C99.0301 27.0313 96.8874 28.5003 96.8874 31.609L96.8855 31.6071Z" fill="white"/>
<path d="M117.725 22.6946C122.423 22.6946 126.495 26.0672 126.495 31.609C126.495 37.1509 122.424 40.5234 117.725 40.5234C113.026 40.5234 108.955 37.1509 108.955 31.609C108.955 26.0672 113.026 22.6946 117.725 22.6946ZM117.725 36.1621C119.726 36.1621 121.846 34.7405 121.846 31.5844C121.846 28.4282 119.726 27.056 117.725 27.056C115.725 27.056 113.605 28.4775 113.605 31.5844C113.605 34.6912 115.725 36.1621 117.725 36.1621Z" fill="white"/>
<path d="M143.02 40.1363V29.5593L139.285 40.1363H135.718L132.008 29.6808V40.1363H127.719V23.0552H133.718L137.548 33.4633L141.209 23.0552H147.377V40.1363H143.016H143.02Z" fill="white"/>
<path d="M153.834 34.3059V40.1363H149.354V23.0552H156.171C159.737 23.0552 162.17 25.3915 162.17 28.692C162.17 31.9924 159.737 34.3059 156.171 34.3059H153.834ZM155.594 30.5709C156.774 30.5709 157.642 29.8724 157.642 28.7166C157.642 27.5608 156.774 26.8377 155.594 26.8377H153.859V30.5728H155.594V30.5709Z" fill="white"/>
<path d="M163.062 33.8732V23.0552H167.568V33.7271C167.568 35.4143 168.435 36.3044 169.929 36.3044C171.423 36.3044 172.265 35.4124 172.265 33.7271V23.0552H176.771V33.8732C176.771 38.1605 173.903 40.5234 169.929 40.5234C165.955 40.5234 163.062 38.1624 163.062 33.8732Z" fill="white"/>
<path d="M187.01 27.3198V40.1363H182.482V27.3198H177.566V23.0552H191.949V27.3198H187.01Z" fill="white"/>
<path d="M192.912 40.1363V23.0552H203.85V26.9573H197.393V29.6561H203.271V33.4139H197.393V36.1602H203.897V40.1344H192.912V40.1363Z" fill="white"/>
<path d="M205.658 40.1363V23.0552H212.861C216.33 23.0552 218.594 25.3687 218.594 28.5477C218.594 30.8613 217.317 32.5713 215.438 33.3171L218.666 40.1344H213.775L211.077 33.9434H210.137V40.1344H205.656L205.658 40.1363ZM212.018 30.476C213.367 30.476 214.066 29.7054 214.066 28.6217C214.066 27.538 213.367 26.7903 212.018 26.7903H210.139V30.476H212.018Z" fill="white"/>
</g>
</g>
<defs>
<linearGradient id="paint0_linear_2587_830" x1="31.2622" y1="38.2916" x2="3.40487" y2="9.44359" gradientUnits="userSpaceOnUse">
<stop offset="0.22" stop-color="#EC1E79"/>
<stop offset="0.89" stop-color="#522784"/>
</linearGradient>
<linearGradient id="paint1_linear_2587_830" x1="53.4278" y1="3.54297" x2="81.2851" y2="32.391" gradientUnits="userSpaceOnUse">
<stop offset="0.21" stop-color="#F05A24"/>
<stop offset="0.68" stop-color="#FAAF3B"/>
</linearGradient>
<clipPath id="clip0_2587_830">
<rect width="219" height="40" fill="white" transform="translate(0 0.908691)"/>
</clipPath>
</defs>
</svg>
