<svg width="48" height="49" viewBox="0 0 48 49" fill="none" xmlns="http://www.w3.org/2000/svg">
<path d="M24.1406 40.8525C21.9219 40.8525 19.8385 40.4307 17.8906 39.5869C15.9427 38.7536 14.224 37.5921 12.7344 36.1025C11.2552 34.6234 10.0938 32.9098 9.25 30.9619C8.41667 29.014 8 26.9307 8 24.7119C8 22.7848 8.32812 20.9567 8.98438 19.2275C9.65104 17.488 10.5573 15.9202 11.7031 14.5244C12.0469 14.0765 12.4531 13.8317 12.9219 13.79C13.401 13.7484 13.8021 13.8942 14.125 14.2275C14.4583 14.5505 14.6094 14.915 14.5781 15.3213C14.5573 15.7275 14.4062 16.1286 14.125 16.5244C13.2083 17.639 12.4896 18.8942 11.9688 20.29C11.4583 21.6859 11.1979 23.1598 11.1875 24.7119C11.1875 26.5036 11.5208 28.1859 12.1875 29.7588C12.8542 31.3213 13.776 32.6963 14.9531 33.8838C16.1406 35.0609 17.5156 35.9827 19.0781 36.6494C20.651 37.3265 22.3385 37.665 24.1406 37.665C25.9427 37.665 27.625 37.3265 29.1875 36.6494C30.7604 35.9827 32.1354 35.0609 33.3125 33.8838C34.5 32.6963 35.4219 31.3213 36.0781 29.7588C36.7448 28.1859 37.0781 26.5036 37.0781 24.7119C37.0781 22.8994 36.7396 21.2015 36.0625 19.6182C35.3958 18.0348 34.4635 16.6494 33.2656 15.4619C32.0677 14.2744 30.6771 13.3525 29.0938 12.6963C27.5104 12.0296 25.8073 11.7067 23.9844 11.7275L25.3438 9.99316V15.8369C25.3438 16.2327 25.2188 16.5661 24.9688 16.8369C24.7188 17.1077 24.3958 17.2432 24 17.2432C23.6146 17.2432 23.2969 17.1077 23.0469 16.8369C22.7969 16.5661 22.6719 16.2327 22.6719 15.8369V10.0713C22.6719 9.60254 22.7969 9.23796 23.0469 8.97754C23.3073 8.70671 23.6771 8.57129 24.1562 8.57129C26.375 8.57129 28.4583 8.99316 30.4062 9.83691C32.3542 10.6702 34.0677 11.8317 35.5469 13.3213C37.026 14.8005 38.1875 16.514 39.0312 18.4619C39.875 20.4098 40.2969 22.4932 40.2969 24.7119C40.2969 26.9307 39.875 29.014 39.0312 30.9619C38.1875 32.9098 37.0208 34.6234 35.5312 36.1025C34.0521 37.5921 32.3385 38.7536 30.3906 39.5869C28.4427 40.4307 26.3594 40.8525 24.1406 40.8525ZM26.6562 27.1025C26.2188 27.5296 25.7396 27.7848 25.2188 27.8682C24.6979 27.9515 24.1927 27.8838 23.7031 27.665C23.2135 27.4463 22.7917 27.0765 22.4375 26.5557L16.9688 18.6025C16.7708 18.29 16.7135 18.0036 16.7969 17.7432C16.8802 17.4827 17.0521 17.3057 17.3125 17.2119C17.5833 17.1182 17.875 17.1755 18.1875 17.3838L26.1406 22.8682C26.651 23.2223 27.0156 23.6442 27.2344 24.1338C27.4635 24.6234 27.5312 25.1286 27.4375 25.6494C27.3542 26.1598 27.0938 26.6442 26.6562 27.1025Z" fill="white"/>
<path d="M24.1406 40.8525C21.9219 40.8525 19.8385 40.4307 17.8906 39.5869C15.9427 38.7536 14.224 37.5921 12.7344 36.1025C11.2552 34.6234 10.0938 32.9098 9.25 30.9619C8.41667 29.014 8 26.9307 8 24.7119C8 22.7848 8.32812 20.9567 8.98438 19.2275C9.65104 17.488 10.5573 15.9202 11.7031 14.5244C12.0469 14.0765 12.4531 13.8317 12.9219 13.79C13.401 13.7484 13.8021 13.8942 14.125 14.2275C14.4583 14.5505 14.6094 14.915 14.5781 15.3213C14.5573 15.7275 14.4062 16.1286 14.125 16.5244C13.2083 17.639 12.4896 18.8942 11.9688 20.29C11.4583 21.6859 11.1979 23.1598 11.1875 24.7119C11.1875 26.5036 11.5208 28.1859 12.1875 29.7588C12.8542 31.3213 13.776 32.6963 14.9531 33.8838C16.1406 35.0609 17.5156 35.9827 19.0781 36.6494C20.651 37.3265 22.3385 37.665 24.1406 37.665C25.9427 37.665 27.625 37.3265 29.1875 36.6494C30.7604 35.9827 32.1354 35.0609 33.3125 33.8838C34.5 32.6963 35.4219 31.3213 36.0781 29.7588C36.7448 28.1859 37.0781 26.5036 37.0781 24.7119C37.0781 22.8994 36.7396 21.2015 36.0625 19.6182C35.3958 18.0348 34.4635 16.6494 33.2656 15.4619C32.0677 14.2744 30.6771 13.3525 29.0938 12.6963C27.5104 12.0296 25.8073 11.7067 23.9844 11.7275L25.3438 9.99316V15.8369C25.3438 16.2327 25.2188 16.5661 24.9688 16.8369C24.7188 17.1077 24.3958 17.2432 24 17.2432C23.6146 17.2432 23.2969 17.1077 23.0469 16.8369C22.7969 16.5661 22.6719 16.2327 22.6719 15.8369V10.0713C22.6719 9.60254 22.7969 9.23796 23.0469 8.97754C23.3073 8.70671 23.6771 8.57129 24.1562 8.57129C26.375 8.57129 28.4583 8.99316 30.4062 9.83691C32.3542 10.6702 34.0677 11.8317 35.5469 13.3213C37.026 14.8005 38.1875 16.514 39.0312 18.4619C39.875 20.4098 40.2969 22.4932 40.2969 24.7119C40.2969 26.9307 39.875 29.014 39.0312 30.9619C38.1875 32.9098 37.0208 34.6234 35.5312 36.1025C34.0521 37.5921 32.3385 38.7536 30.3906 39.5869C28.4427 40.4307 26.3594 40.8525 24.1406 40.8525ZM26.6562 27.1025C26.2188 27.5296 25.7396 27.7848 25.2188 27.8682C24.6979 27.9515 24.1927 27.8838 23.7031 27.665C23.2135 27.4463 22.7917 27.0765 22.4375 26.5557L16.9688 18.6025C16.7708 18.29 16.7135 18.0036 16.7969 17.7432C16.8802 17.4827 17.0521 17.3057 17.3125 17.2119C17.5833 17.1182 17.875 17.1755 18.1875 17.3838L26.1406 22.8682C26.651 23.2223 27.0156 23.6442 27.2344 24.1338C27.4635 24.6234 27.5312 25.1286 27.4375 25.6494C27.3542 26.1598 27.0938 26.6442 26.6562 27.1025Z" fill="url(#paint0_linear_2830_4054)"/>
<defs>
<linearGradient id="paint0_linear_2830_4054" x1="24.1484" y1="4.95416" x2="24.1484" y2="40.8525" gradientUnits="userSpaceOnUse">
<stop stop-color="#30DB5B"/>
<stop offset="1" stop-color="#248A3D"/>
</linearGradient>
</defs>
</svg>
