<svg width="48" height="48" viewBox="0 0 48 48" fill="none" xmlns="http://www.w3.org/2000/svg">
<g filter="url(#filter0_di_2884_2239)">
<path d="M38.1518 24.0893C38.1518 24.372 38.0513 24.6138 37.8504 24.8147C37.6496 25.0231 37.4152 25.1272 37.1473 25.1272H25.942L24.279 25.0379L24.9933 25.6295L26.6897 27.2143C26.8981 27.4003 27.0022 27.631 27.0022 27.9063C27.0022 28.1592 26.9167 28.375 26.7455 28.5536C26.5744 28.7396 26.3624 28.8326 26.1094 28.8326C25.8638 28.8326 25.6406 28.7359 25.4397 28.5424L21.9018 24.8705C21.7753 24.7366 21.686 24.6064 21.6339 24.4799C21.5818 24.3534 21.5558 24.2232 21.5558 24.0893C21.5558 23.9554 21.5818 23.8251 21.6339 23.6987C21.686 23.5722 21.7753 23.4382 21.9018 23.2969L25.4397 19.6362C25.6406 19.4353 25.8638 19.3348 26.1094 19.3348C26.3624 19.3348 26.5744 19.4241 26.7455 19.6027C26.9167 19.7813 27.0022 19.997 27.0022 20.25C27.0022 20.5402 26.8981 20.7746 26.6897 20.9531L24.9933 22.5491L24.279 23.1406L25.942 23.0513H37.1473C37.4152 23.0513 37.6496 23.1518 37.8504 23.3527C38.0513 23.561 38.1518 23.8065 38.1518 24.0893ZM14 17.6607C14 16.4554 14.3051 15.5439 14.9152 14.9263C15.5253 14.3088 16.4293 14 17.6272 14H28.5536C29.7515 14 30.6555 14.3088 31.2656 14.9263C31.8757 15.5439 32.1808 16.4554 32.1808 17.6607V20.942H29.9933V17.7946C29.9933 17.2738 29.8594 16.8757 29.5915 16.6004C29.3237 16.3326 28.9182 16.1987 28.375 16.1987H17.817C17.2738 16.1987 16.8683 16.3326 16.6004 16.6004C16.3251 16.8757 16.1875 17.2738 16.1875 17.7946V30.3728C16.1875 30.8862 16.3251 31.2805 16.6004 31.5558C16.8683 31.8385 17.2738 31.9799 17.817 31.9799H28.375C28.9182 31.9799 29.3237 31.8385 29.5915 31.5558C29.8594 31.2805 29.9933 30.8862 29.9933 30.3728V27.2254H32.1808V30.5179C32.1808 31.7232 31.8757 32.6347 31.2656 33.2522C30.6555 33.8698 29.7515 34.1786 28.5536 34.1786H17.6272C16.4293 34.1786 15.5253 33.8698 14.9152 33.2522C14.3051 32.6347 14 31.7232 14 30.5179V17.6607Z" fill="white" fill-opacity="0.7" style="mix-blend-mode:luminosity" shape-rendering="crispEdges"/>
</g>
<defs>
<filter id="filter0_di_2884_2239" x="11" y="12.5" width="30.1514" height="26.1786" filterUnits="userSpaceOnUse" color-interpolation-filters="sRGB">
<feFlood flood-opacity="0" result="BackgroundImageFix"/>
<feColorMatrix in="SourceAlpha" type="matrix" values="0 0 0 0 0 0 0 0 0 0 0 0 0 0 0 0 0 0 127 0" result="hardAlpha"/>
<feOffset dy="1.5"/>
<feGaussianBlur stdDeviation="1.5"/>
<feComposite in2="hardAlpha" operator="out"/>
<feColorMatrix type="matrix" values="0 0 0 0 0 0 0 0 0 0 0 0 0 0 0 0 0 0 0.12 0"/>
<feBlend mode="normal" in2="BackgroundImageFix" result="effect1_dropShadow_2884_2239"/>
<feBlend mode="normal" in="SourceGraphic" in2="effect1_dropShadow_2884_2239" result="shape"/>
<feColorMatrix in="SourceAlpha" type="matrix" values="0 0 0 0 0 0 0 0 0 0 0 0 0 0 0 0 0 0 127 0" result="hardAlpha"/>
<feOffset dy="1.5"/>
<feComposite in2="hardAlpha" operator="arithmetic" k2="-1" k3="1"/>
<feColorMatrix type="matrix" values="0 0 0 0 1 0 0 0 0 1 0 0 0 0 1 0 0 0 0.7 0"/>
<feBlend mode="normal" in2="shape" result="effect2_innerShadow_2884_2239"/>
</filter>
</defs>
</svg>
