<svg width="48" height="48" viewBox="0 0 48 48" fill="none" xmlns="http://www.w3.org/2000/svg">
<g filter="url(#filter0_di_2884_2271)">
<path d="M28.6903 13C27.0259 13 25.3611 13.6339 24.0936 14.9014L21.2655 17.7295C18.7305 20.2645 18.7305 24.3869 21.2655 26.9219C22.033 27.6889 22.938 28.2195 23.91 28.5195L24.4471 27.9824C24.7971 27.6324 25.0451 27.215 25.1796 26.7695C24.2641 26.632 23.3831 26.2113 22.6796 25.5078C20.9261 23.7543 20.9261 20.8971 22.6796 19.1436L25.5077 16.3154C27.2612 14.5619 30.1185 14.5619 31.872 16.3154C33.6255 18.0689 33.6255 20.9262 31.872 22.6797L30.1786 24.373C30.3556 25.2925 30.3657 26.2368 30.2137 27.1523C30.2952 27.0778 30.3799 26.9999 30.4579 26.9219L33.286 24.0938C35.821 21.5588 35.821 17.4364 33.286 14.9014C32.0185 13.6339 30.3547 13 28.6903 13ZM24.2782 19.667L23.7411 20.2051C23.3911 20.5551 23.1432 20.9715 23.0087 21.417C23.9242 21.5545 24.8042 21.9762 25.5077 22.6797C27.2612 24.4332 27.2612 27.2895 25.5077 29.043L22.6796 31.8721C20.9261 33.6256 18.0688 33.6256 16.3153 31.8721C14.5618 30.1186 14.5618 27.2613 16.3153 25.5078L18.0087 23.8145C17.8317 22.895 17.8215 21.9507 17.9735 21.0352C17.892 21.1097 17.8074 21.1876 17.7294 21.2656L14.9012 24.0938C12.3663 26.6287 12.3663 30.7511 14.9012 33.2861C17.4362 35.8211 21.5586 35.8211 24.0936 33.2861L26.9218 30.458C29.4568 27.923 29.4568 23.8006 26.9218 21.2656C26.1543 20.4986 25.2497 19.9675 24.2782 19.667Z" fill="white" fill-opacity="0.7" shape-rendering="crispEdges"/>
</g>
<defs>
<filter id="filter0_di_2884_2271" x="10" y="11.5" width="28.1875" height="28.1874" filterUnits="userSpaceOnUse" color-interpolation-filters="sRGB">
<feFlood flood-opacity="0" result="BackgroundImageFix"/>
<feColorMatrix in="SourceAlpha" type="matrix" values="0 0 0 0 0 0 0 0 0 0 0 0 0 0 0 0 0 0 127 0" result="hardAlpha"/>
<feOffset dy="1.5"/>
<feGaussianBlur stdDeviation="1.5"/>
<feComposite in2="hardAlpha" operator="out"/>
<feColorMatrix type="matrix" values="0 0 0 0 0 0 0 0 0 0 0 0 0 0 0 0 0 0 0.12 0"/>
<feBlend mode="normal" in2="BackgroundImageFix" result="effect1_dropShadow_2884_2271"/>
<feBlend mode="normal" in="SourceGraphic" in2="effect1_dropShadow_2884_2271" result="shape"/>
<feColorMatrix in="SourceAlpha" type="matrix" values="0 0 0 0 0 0 0 0 0 0 0 0 0 0 0 0 0 0 127 0" result="hardAlpha"/>
<feOffset dy="1.5"/>
<feComposite in2="hardAlpha" operator="arithmetic" k2="-1" k3="1"/>
<feColorMatrix type="matrix" values="0 0 0 0 1 0 0 0 0 1 0 0 0 0 1 0 0 0 0.7 0"/>
<feBlend mode="normal" in2="shape" result="effect2_innerShadow_2884_2271"/>
</filter>
</defs>
</svg>
