<svg width="28" height="28" viewBox="0 0 28 28" fill="none" xmlns="http://www.w3.org/2000/svg">
<path d="M6.56445 6.125C5.11677 6.125 3.93945 7.30231 3.93945 8.75V19.25C3.93945 20.6977 5.11677 21.875 6.56445 21.875H21.4395C22.8871 21.875 24.0645 20.6977 24.0645 19.25V8.75C24.0645 7.30231 22.8871 6.125 21.4395 6.125H6.56445ZM6.56445 7.875H21.4395C21.922 7.875 22.3145 8.26744 22.3145 8.75V19.25C22.3145 19.7326 21.922 20.125 21.4395 20.125H6.56445C6.08189 20.125 5.68945 19.7326 5.68945 19.25V8.75C5.68945 8.26744 6.08189 7.875 6.56445 7.875ZM8.0957 9.84375C7.61227 9.84375 7.2207 10.2353 7.2207 10.7188C7.2207 11.2022 7.61227 11.5938 8.0957 11.5938C8.57914 11.5938 8.9707 11.2022 8.9707 10.7188C8.9707 10.2353 8.57914 9.84375 8.0957 9.84375ZM15.5332 9.84375C15.0498 9.84375 14.6582 10.2353 14.6582 10.7188C14.6582 11.2022 15.0498 11.5938 15.5332 11.5938C16.0166 11.5938 16.4082 11.2022 16.4082 10.7188C16.4082 10.2353 16.0166 9.84375 15.5332 9.84375ZM10.2832 10.0625C9.92095 10.0625 9.62695 10.3561 9.62695 10.7188C9.62695 11.0814 9.92095 11.375 10.2832 11.375H12.4707C12.833 11.375 13.127 11.0814 13.127 10.7188C13.127 10.3561 12.833 10.0625 12.4707 10.0625H10.2832ZM17.7207 10.0625C17.3585 10.0625 17.0645 10.3561 17.0645 10.7188C17.0645 11.0814 17.3585 11.375 17.7207 11.375H19.9082C20.2705 11.375 20.5645 11.0814 20.5645 10.7188C20.5645 10.3561 20.2705 10.0625 19.9082 10.0625H17.7207ZM8.0957 13.125C7.61227 13.125 7.2207 13.5166 7.2207 14C7.2207 14.4834 7.61227 14.875 8.0957 14.875C8.57914 14.875 8.9707 14.4834 8.9707 14C8.9707 13.5166 8.57914 13.125 8.0957 13.125ZM15.5332 13.125C15.0498 13.125 14.6582 13.5166 14.6582 14C14.6582 14.4834 15.0498 14.875 15.5332 14.875C16.0166 14.875 16.4082 14.4834 16.4082 14C16.4082 13.5166 16.0166 13.125 15.5332 13.125ZM10.2832 13.3438C9.92095 13.3438 9.62695 13.6373 9.62695 14C9.62695 14.3627 9.92095 14.6562 10.2832 14.6562H12.4707C12.833 14.6562 13.127 14.3627 13.127 14C13.127 13.6373 12.833 13.3438 12.4707 13.3438H10.2832ZM17.7207 13.3438C17.3585 13.3438 17.0645 13.6373 17.0645 14C17.0645 14.3627 17.3585 14.6562 17.7207 14.6562H19.9082C20.2705 14.6562 20.5645 14.3627 20.5645 14C20.5645 13.6373 20.2705 13.3438 19.9082 13.3438H17.7207ZM8.0957 16.4062C7.61227 16.4062 7.2207 16.7978 7.2207 17.2812C7.2207 17.7647 7.61227 18.1562 8.0957 18.1562C8.57914 18.1562 8.9707 17.7647 8.9707 17.2812C8.9707 16.7978 8.57914 16.4062 8.0957 16.4062ZM15.5332 16.4062C15.0498 16.4062 14.6582 16.7978 14.6582 17.2812C14.6582 17.7647 15.0498 18.1562 15.5332 18.1562C16.0166 18.1562 16.4082 17.7647 16.4082 17.2812C16.4082 16.7978 16.0166 16.4062 15.5332 16.4062ZM10.2832 16.625C9.92095 16.625 9.62695 16.9186 9.62695 17.2812C9.62695 17.6439 9.92095 17.9375 10.2832 17.9375H12.4707C12.833 17.9375 13.127 17.6439 13.127 17.2812C13.127 16.9186 12.833 16.625 12.4707 16.625H10.2832ZM17.7207 16.625C17.3585 16.625 17.0645 16.9186 17.0645 17.2812C17.0645 17.6439 17.3585 17.9375 17.7207 17.9375H19.9082C20.2705 17.9375 20.5645 17.6439 20.5645 17.2812C20.5645 16.9186 20.2705 16.625 19.9082 16.625H17.7207Z" fill="#EDEDED" style="mix-blend-mode:luminosity"/>
</svg>
