<svg width="48" height="48" viewBox="0 0 48 48" fill="none" xmlns="http://www.w3.org/2000/svg">
<g filter="url(#filter0_di_2884_2245)">
<path d="M31.5 34.5H22.5C21.948 34.5 21.5 34.052 21.5 33.5C21.5 32.948 21.948 32.5 22.5 32.5H31.5C32.052 32.5 32.5 32.948 32.5 33.5C32.5 34.052 32.052 34.5 31.5 34.5ZM34 31H22.5C21.948 31 21.5 30.552 21.5 30C21.5 29.448 21.948 29 22.5 29H34C34.552 29 35 29.448 35 30C35 30.552 34.552 31 34 31ZM15 34.5C14.4475 34.5 14 34.0525 14 33.5V30C14 29.4475 14.4475 29 15 29H18.5C19.0525 29 19.5 29.4475 19.5 30V33.5C19.5 34.0525 19.0525 34.5 18.5 34.5H15ZM31.5 27H22.5C21.948 27 21.5 26.552 21.5 26C21.5 25.448 21.948 25 22.5 25H31.5C32.052 25 32.5 25.448 32.5 26C32.5 26.552 32.052 27 31.5 27ZM34 23.5H22.5C21.948 23.5 21.5 23.052 21.5 22.5C21.5 21.948 21.948 21.5 22.5 21.5H34C34.552 21.5 35 21.948 35 22.5C35 23.052 34.552 23.5 34 23.5ZM15 27C14.4475 27 14 26.5525 14 26V22.5C14 21.9475 14.4475 21.5 15 21.5H18.5C19.0525 21.5 19.5 21.9475 19.5 22.5V26C19.5 26.5525 19.0525 27 18.5 27H15ZM31.5 19.5H22.5C21.948 19.5 21.5 19.052 21.5 18.5C21.5 17.948 21.948 17.5 22.5 17.5H31.5C32.052 17.5 32.5 17.948 32.5 18.5C32.5 19.052 32.052 19.5 31.5 19.5ZM34 16H22.5C21.948 16 21.5 15.552 21.5 15C21.5 14.448 21.948 14 22.5 14H34C34.552 14 35 14.448 35 15C35 15.552 34.552 16 34 16ZM15 19.5C14.4475 19.5 14 19.0525 14 18.5V15C14 14.4475 14.4475 14 15 14H18.5C19.0525 14 19.5 14.4475 19.5 15V18.5C19.5 19.0525 19.0525 19.5 18.5 19.5H15Z" fill="white" fill-opacity="0.7" shape-rendering="crispEdges"/>
</g>
<defs>
<filter id="filter0_di_2884_2245" x="11" y="12.5" width="27" height="26.5" filterUnits="userSpaceOnUse" color-interpolation-filters="sRGB">
<feFlood flood-opacity="0" result="BackgroundImageFix"/>
<feColorMatrix in="SourceAlpha" type="matrix" values="0 0 0 0 0 0 0 0 0 0 0 0 0 0 0 0 0 0 127 0" result="hardAlpha"/>
<feOffset dy="1.5"/>
<feGaussianBlur stdDeviation="1.5"/>
<feComposite in2="hardAlpha" operator="out"/>
<feColorMatrix type="matrix" values="0 0 0 0 0 0 0 0 0 0 0 0 0 0 0 0 0 0 0.12 0"/>
<feBlend mode="normal" in2="BackgroundImageFix" result="effect1_dropShadow_2884_2245"/>
<feBlend mode="normal" in="SourceGraphic" in2="effect1_dropShadow_2884_2245" result="shape"/>
<feColorMatrix in="SourceAlpha" type="matrix" values="0 0 0 0 0 0 0 0 0 0 0 0 0 0 0 0 0 0 127 0" result="hardAlpha"/>
<feOffset dy="1.5"/>
<feComposite in2="hardAlpha" operator="arithmetic" k2="-1" k3="1"/>
<feColorMatrix type="matrix" values="0 0 0 0 1 0 0 0 0 1 0 0 0 0 1 0 0 0 0.7 0"/>
<feBlend mode="normal" in2="shape" result="effect2_innerShadow_2884_2245"/>
</filter>
</defs>
</svg>
