<svg width="49" height="49" viewBox="0 0 49 49" fill="none" xmlns="http://www.w3.org/2000/svg">
<path d="M28.458 8.07129C24.228 8.07129 20.4858 10.2011 18.2583 13.4561L19.0684 14.2573C19.0659 14.2577 19.0635 14.2584 19.061 14.2588L21.8882 17.0859C27.6482 17.3634 32.2909 22.0061 32.5684 27.7661L35.3955 30.5933C35.3978 30.5797 35.3991 30.5658 35.4014 30.5522L35.4482 30.646C38.6957 28.4185 40.833 24.6763 40.833 20.4463C40.833 13.6213 35.283 8.07129 28.458 8.07129ZM10.083 9.00879C9.7472 9.0087 9.41189 9.13645 9.15576 9.39258C8.64276 9.90483 8.64276 10.7363 9.15576 11.2485L37.6558 39.7485C37.9115 40.005 38.247 40.1338 38.583 40.1338C38.919 40.1338 39.2545 40.0058 39.5103 39.75C40.0233 39.2377 40.0233 38.4063 39.5103 37.894L11.0103 9.39404C10.7541 9.13754 10.4188 9.00888 10.083 9.00879ZM28.458 11.0713C33.6255 11.0713 37.833 15.2788 37.833 20.4463C37.833 22.8193 36.9369 24.9824 35.4746 26.6382C34.6492 19.6583 28.7697 14.2193 21.6025 14.0845C23.3155 12.2372 25.7495 11.0713 28.458 11.0713ZM12.1528 17.4316C9.05533 20.0491 7.08301 23.9563 7.08301 28.3213C7.08301 36.1813 13.473 42.5713 21.333 42.5713C25.698 42.5713 29.6052 40.599 32.2227 37.5015L30.0928 35.3716C28.0228 37.9366 24.8655 39.5713 21.333 39.5713C15.1305 39.5713 10.083 34.5238 10.083 28.3213C10.083 24.7888 11.7177 21.6315 14.2827 19.5615L12.1528 17.4316ZM17.7104 22.9893C17.4779 23.2143 17.3437 23.5511 17.3062 24.0161L16.9458 28.4795C16.9158 29.147 17.3062 29.7158 18.1162 29.7158C18.6712 29.7158 18.9178 29.5887 19.4053 29.1387C19.8253 28.7337 20.4185 28.4268 21.1235 28.4268C22.421 28.4268 23.3428 29.3188 23.3428 30.5713C23.3428 31.8538 22.4137 32.7832 21.1162 32.7832C20.0512 32.7832 19.345 32.2656 18.9175 31.4106C18.64 30.9681 18.3256 30.7881 17.8306 30.7881C17.1856 30.7881 16.7949 31.1716 16.7949 31.8091C16.7949 32.1016 16.8637 32.3566 16.9912 32.6191C17.5837 33.8866 19.2337 34.7637 21.1162 34.7637C23.6587 34.7637 25.4734 33.2631 25.6909 30.9756L21.3857 26.6719C20.3807 26.7769 19.5852 27.2261 19.1577 27.8936H19.105L19.373 24.7734L19.3833 24.6606L17.7104 22.9893Z" fill="black"/>
<path d="M28.458 8.07129C24.228 8.07129 20.4858 10.2011 18.2583 13.4561L19.0684 14.2573C19.0659 14.2577 19.0635 14.2584 19.061 14.2588L21.8882 17.0859C27.6482 17.3634 32.2909 22.0061 32.5684 27.7661L35.3955 30.5933C35.3978 30.5797 35.3991 30.5658 35.4014 30.5522L35.4482 30.646C38.6957 28.4185 40.833 24.6763 40.833 20.4463C40.833 13.6213 35.283 8.07129 28.458 8.07129ZM10.083 9.00879C9.7472 9.0087 9.41189 9.13645 9.15576 9.39258C8.64276 9.90483 8.64276 10.7363 9.15576 11.2485L37.6558 39.7485C37.9115 40.005 38.247 40.1338 38.583 40.1338C38.919 40.1338 39.2545 40.0058 39.5103 39.75C40.0233 39.2377 40.0233 38.4063 39.5103 37.894L11.0103 9.39404C10.7541 9.13754 10.4188 9.00888 10.083 9.00879ZM28.458 11.0713C33.6255 11.0713 37.833 15.2788 37.833 20.4463C37.833 22.8193 36.9369 24.9824 35.4746 26.6382C34.6492 19.6583 28.7697 14.2193 21.6025 14.0845C23.3155 12.2372 25.7495 11.0713 28.458 11.0713ZM12.1528 17.4316C9.05533 20.0491 7.08301 23.9563 7.08301 28.3213C7.08301 36.1813 13.473 42.5713 21.333 42.5713C25.698 42.5713 29.6052 40.599 32.2227 37.5015L30.0928 35.3716C28.0228 37.9366 24.8655 39.5713 21.333 39.5713C15.1305 39.5713 10.083 34.5238 10.083 28.3213C10.083 24.7888 11.7177 21.6315 14.2827 19.5615L12.1528 17.4316ZM17.7104 22.9893C17.4779 23.2143 17.3437 23.5511 17.3062 24.0161L16.9458 28.4795C16.9158 29.147 17.3062 29.7158 18.1162 29.7158C18.6712 29.7158 18.9178 29.5887 19.4053 29.1387C19.8253 28.7337 20.4185 28.4268 21.1235 28.4268C22.421 28.4268 23.3428 29.3188 23.3428 30.5713C23.3428 31.8538 22.4137 32.7832 21.1162 32.7832C20.0512 32.7832 19.345 32.2656 18.9175 31.4106C18.64 30.9681 18.3256 30.7881 17.8306 30.7881C17.1856 30.7881 16.7949 31.1716 16.7949 31.8091C16.7949 32.1016 16.8637 32.3566 16.9912 32.6191C17.5837 33.8866 19.2337 34.7637 21.1162 34.7637C23.6587 34.7637 25.4734 33.2631 25.6909 30.9756L21.3857 26.6719C20.3807 26.7769 19.5852 27.2261 19.1577 27.8936H19.105L19.373 24.7734L19.3833 24.6606L17.7104 22.9893Z" fill="url(#paint0_linear_2830_4060)"/>
<defs>
<linearGradient id="paint0_linear_2830_4060" x1="23.958" y1="4.20555" x2="23.958" y2="42.5713" gradientUnits="userSpaceOnUse">
<stop stop-color="#30DB5B"/>
<stop offset="1" stop-color="#248A3D"/>
</linearGradient>
</defs>
</svg>
