<svg width="69" height="69" viewBox="0 0 69 69" fill="none" xmlns="http://www.w3.org/2000/svg">
<g filter="url(#filter0_di_2587_819)">
<rect x="2.5" y="1.40869" width="64" height="64" rx="16" fill="url(#paint0_linear_2587_819)"/>
</g>
<g filter="url(#filter1_d_2587_819)">
<path d="M13.9287 33.3731C13.9287 44.7188 23.1254 53.9155 34.4646 53.9155C45.8039 53.9155 55.007 44.7188 55.007 33.3795C55.007 22.0402 45.8104 12.8372 34.4646 12.8372C23.1189 12.8372 13.9287 22.0273 13.9287 33.3731ZM23.0544 33.3731C23.0544 27.0742 28.1658 21.9628 34.4646 21.9628C40.7635 21.9628 45.8749 27.0742 45.8749 33.3731C45.8749 39.672 40.7635 44.7834 34.4646 44.7834C28.1593 44.7834 23.0544 39.672 23.0544 33.3731Z" fill="url(#paint1_linear_2587_819)"/>
<path d="M46.3459 16.6321C55.691 23.1052 57.9627 35.845 51.4186 45.0933C50.0375 47.0487 48.3208 48.7461 46.3459 50.1143L41.0474 42.6215C46.2104 39.0461 47.4624 32.005 43.8483 26.9C43.0868 25.8223 42.1381 24.88 41.0474 24.1249L46.3459 16.6321Z" fill="url(#paint2_linear_2587_819)"/>
</g>
<defs>
<filter id="filter0_di_2587_819" x="0.5" y="0.408691" width="68" height="68" filterUnits="userSpaceOnUse" color-interpolation-filters="sRGB">
<feFlood flood-opacity="0" result="BackgroundImageFix"/>
<feColorMatrix in="SourceAlpha" type="matrix" values="0 0 0 0 0 0 0 0 0 0 0 0 0 0 0 0 0 0 127 0" result="hardAlpha"/>
<feOffset dy="1"/>
<feGaussianBlur stdDeviation="1"/>
<feComposite in2="hardAlpha" operator="out"/>
<feColorMatrix type="matrix" values="0 0 0 0 0 0 0 0 0 0 0 0 0 0 0 0 0 0 0.25 0"/>
<feBlend mode="normal" in2="BackgroundImageFix" result="effect1_dropShadow_2587_819"/>
<feBlend mode="normal" in="SourceGraphic" in2="effect1_dropShadow_2587_819" result="shape"/>
<feColorMatrix in="SourceAlpha" type="matrix" values="0 0 0 0 0 0 0 0 0 0 0 0 0 0 0 0 0 0 127 0" result="hardAlpha"/>
<feOffset dy="1"/>
<feComposite in2="hardAlpha" operator="arithmetic" k2="-1" k3="1"/>
<feColorMatrix type="matrix" values="0 0 0 0 1 0 0 0 0 1 0 0 0 0 1 0 0 0 0.12 0"/>
<feBlend mode="normal" in2="shape" result="effect2_innerShadow_2587_819"/>
</filter>
<filter id="filter1_d_2587_819" x="13.0144" y="12.38" width="43.0561" height="42.9069" filterUnits="userSpaceOnUse" color-interpolation-filters="sRGB">
<feFlood flood-opacity="0" result="BackgroundImageFix"/>
<feColorMatrix in="SourceAlpha" type="matrix" values="0 0 0 0 0 0 0 0 0 0 0 0 0 0 0 0 0 0 127 0" result="hardAlpha"/>
<feOffset dy="0.457143"/>
<feGaussianBlur stdDeviation="0.457143"/>
<feComposite in2="hardAlpha" operator="out"/>
<feColorMatrix type="matrix" values="0 0 0 0 0 0 0 0 0 0 0 0 0 0 0 0 0 0 0.3 0"/>
<feBlend mode="normal" in2="BackgroundImageFix" result="effect1_dropShadow_2587_819"/>
<feBlend mode="normal" in="SourceGraphic" in2="effect1_dropShadow_2587_819" result="shape"/>
</filter>
<linearGradient id="paint0_linear_2587_819" x1="34.5" y1="1.40869" x2="34.5" y2="65.4087" gradientUnits="userSpaceOnUse">
<stop stop-color="#1D1D1D"/>
<stop offset="1" stop-color="#1D1D1D"/>
</linearGradient>
<linearGradient id="paint1_linear_2587_819" x1="34.4949" y1="53.2141" x2="34.416" y2="1.49397" gradientUnits="userSpaceOnUse">
<stop stop-color="#FBB03B"/>
<stop offset="1" stop-color="#F05A24"/>
</linearGradient>
<linearGradient id="paint2_linear_2587_819" x1="40.515" y1="4.15546" x2="51.0208" y2="49.4312" gradientUnits="userSpaceOnUse">
<stop stop-color="#5F2583"/>
<stop offset="1" stop-color="#ED1E79"/>
</linearGradient>
</defs>
</svg>
