<svg width="49" height="49" viewBox="0 0 49 49" fill="none" xmlns="http://www.w3.org/2000/svg">
<path fill-rule="evenodd" clip-rule="evenodd" d="M33.2799 16.8967C33.7513 17.036 34.2501 17.1108 34.7661 17.1108C37.6611 17.1108 40.0161 14.7558 40.0161 11.8608C40.0161 8.96584 37.6611 6.61084 34.7661 6.61084C31.8711 6.61084 29.5161 8.96584 29.5161 11.8608C29.5161 13.1548 29.9866 14.3409 30.7654 15.257C30.7496 15.2811 30.7344 15.3058 30.7197 15.3311L25.8807 23.7123H16.355C16.2896 23.7123 16.2253 23.7165 16.1621 23.7246C15.4832 21.6109 13.4985 20.0771 11.1621 20.0771C8.26711 20.0771 5.91211 22.4321 5.91211 25.3271C5.91211 28.2221 8.26711 30.5771 11.1621 30.5771C13.5797 30.5771 15.6208 28.9347 16.2281 26.707C16.27 26.7105 16.3123 26.7123 16.355 26.7123H25.8815L30.6447 34.9623C30.6635 34.9948 30.6857 35.0276 30.7111 35.0604C29.7491 36.0125 29.1523 37.333 29.1523 38.7903C29.1523 41.6853 31.5073 44.0403 34.4023 44.0403C37.2966 44.0403 39.6523 41.6853 39.6523 38.7903C39.6523 35.8953 37.2973 33.5403 34.4023 33.5403C34.0364 33.5403 33.6791 33.5779 33.334 33.6495C33.3085 33.5863 33.2782 33.5237 33.2427 33.4623L28.4795 25.2123L33.2799 16.8967ZM32.5161 11.8608C32.5161 10.6203 33.5256 9.61084 34.7661 9.61084C36.0066 9.61084 37.0161 10.6203 37.0161 11.8608C37.0161 13.1013 36.0066 14.1108 34.7661 14.1108C33.5256 14.1108 32.5161 13.1013 32.5161 11.8608ZM8.91211 25.3271C8.91211 24.0866 9.92161 23.0771 11.1621 23.0771C12.4026 23.0771 13.4121 24.0866 13.4121 25.3271C13.4121 26.5676 12.4026 27.5771 11.1621 27.5771C9.92161 27.5771 8.91211 26.5676 8.91211 25.3271ZM32.1523 38.7903C32.1523 37.5498 33.1618 36.5403 34.4023 36.5403C35.6428 36.5403 36.6523 37.5498 36.6523 38.7903C36.6523 40.0308 35.6428 41.0403 34.4023 41.0403C33.1618 41.0403 32.1523 40.0308 32.1523 38.7903Z" fill="white"/>
<path fill-rule="evenodd" clip-rule="evenodd" d="M33.2799 16.8967C33.7513 17.036 34.2501 17.1108 34.7661 17.1108C37.6611 17.1108 40.0161 14.7558 40.0161 11.8608C40.0161 8.96584 37.6611 6.61084 34.7661 6.61084C31.8711 6.61084 29.5161 8.96584 29.5161 11.8608C29.5161 13.1548 29.9866 14.3409 30.7654 15.257C30.7496 15.2811 30.7344 15.3058 30.7197 15.3311L25.8807 23.7123H16.355C16.2896 23.7123 16.2253 23.7165 16.1621 23.7246C15.4832 21.6109 13.4985 20.0771 11.1621 20.0771C8.26711 20.0771 5.91211 22.4321 5.91211 25.3271C5.91211 28.2221 8.26711 30.5771 11.1621 30.5771C13.5797 30.5771 15.6208 28.9347 16.2281 26.707C16.27 26.7105 16.3123 26.7123 16.355 26.7123H25.8815L30.6447 34.9623C30.6635 34.9948 30.6857 35.0276 30.7111 35.0604C29.7491 36.0125 29.1523 37.333 29.1523 38.7903C29.1523 41.6853 31.5073 44.0403 34.4023 44.0403C37.2966 44.0403 39.6523 41.6853 39.6523 38.7903C39.6523 35.8953 37.2973 33.5403 34.4023 33.5403C34.0364 33.5403 33.6791 33.5779 33.334 33.6495C33.3085 33.5863 33.2782 33.5237 33.2427 33.4623L28.4795 25.2123L33.2799 16.8967ZM32.5161 11.8608C32.5161 10.6203 33.5256 9.61084 34.7661 9.61084C36.0066 9.61084 37.0161 10.6203 37.0161 11.8608C37.0161 13.1013 36.0066 14.1108 34.7661 14.1108C33.5256 14.1108 32.5161 13.1013 32.5161 11.8608ZM8.91211 25.3271C8.91211 24.0866 9.92161 23.0771 11.1621 23.0771C12.4026 23.0771 13.4121 24.0866 13.4121 25.3271C13.4121 26.5676 12.4026 27.5771 11.1621 27.5771C9.92161 27.5771 8.91211 26.5676 8.91211 25.3271ZM32.1523 38.7903C32.1523 37.5498 33.1618 36.5403 34.4023 36.5403C35.6428 36.5403 36.6523 37.5498 36.6523 38.7903C36.6523 40.0308 35.6428 41.0403 34.4023 41.0403C33.1618 41.0403 32.1523 40.0308 32.1523 38.7903Z" fill="url(#paint0_linear_2830_4044)"/>
<defs>
<linearGradient id="paint0_linear_2830_4044" x1="22.9641" y1="2.41685" x2="22.9641" y2="44.0403" gradientUnits="userSpaceOnUse">
<stop stop-color="#30DB5B"/>
<stop offset="1" stop-color="#248A3D"/>
</linearGradient>
</defs>
</svg>
