<svg width="36" height="34" viewBox="0 0 36 34" fill="none" xmlns="http://www.w3.org/2000/svg">
<g clip-path="url(#clip0_500_2080)">
<path fill-rule="evenodd" clip-rule="evenodd" d="M13.3675 11.0718C13.3675 8.69514 15.2942 6.76851 17.6708 6.76851C20.0474 6.76851 21.974 8.69514 21.974 11.0718C21.974 13.3368 20.224 15.1931 18.0023 15.3624V20.6657C23.1505 20.4909 27.2703 16.2625 27.2703 11.0718C27.2703 5.77007 22.9724 1.47221 17.6708 1.47221C12.3691 1.47221 8.07123 5.77007 8.07123 11.0718C8.07123 11.4071 8.08842 11.7384 8.12197 12.0648H13.4827C13.4074 11.746 13.3675 11.4135 13.3675 11.0718Z" fill="white"/>
<path fill-rule="evenodd" clip-rule="evenodd" d="M28.5932 20.45C27.499 21.8547 26.1134 23.0211 24.5271 23.8584C25.4198 25.1057 25.9453 26.6338 25.9453 28.2847V38.8773C25.9453 43.0821 22.5366 46.4907 18.3318 46.4907C14.1271 46.4907 10.7184 43.0821 10.7184 38.8773V28.2847C10.7184 26.517 11.3209 24.89 12.3316 23.5978C10.7855 22.6953 9.44929 21.4723 8.41404 20.02C6.54605 22.2591 5.42212 25.1407 5.42212 28.2847V38.8773C5.42212 46.0072 11.202 51.787 18.3318 51.787C25.4617 51.787 31.2416 46.0072 31.2416 38.8773V28.2847C31.2416 25.3384 30.2546 22.6227 28.5932 20.45Z" fill="white"/>
<path fill-rule="evenodd" clip-rule="evenodd" d="M18.0003 15.3792C11.0237 15.555 5.42212 21.2657 5.42212 28.2847V39.5393C5.42212 46.6692 11.202 52.4491 18.3318 52.4491C25.4617 52.4491 31.2416 46.6692 31.2416 39.5393V33.25H25.9453V39.5393C25.9453 43.7441 22.5366 47.1528 18.3318 47.1528C14.1271 47.1528 10.7184 43.7441 10.7184 39.5393V28.2847C10.7184 24.191 13.9493 20.8519 18.0003 20.6784V15.3792Z" fill="white"/>
</g>
<defs>
<clipPath id="clip0_500_2080">
<rect x="0.125" y="0.75" width="35.75" height="32.5" rx="7.44792" fill="white"/>
</clipPath>
</defs>
</svg>
