<svg width="24" height="24" viewBox="0 0 24 24" fill="none" xmlns="http://www.w3.org/2000/svg">
<path d="M10.125 3.375C13.8469 3.375 16.875 6.40312 16.875 10.125C16.875 13.8469 13.8469 16.875 10.125 16.875C6.40312 16.875 3.375 13.8469 3.375 10.125C3.375 6.40312 6.40312 3.375 10.125 3.375ZM10.125 15.375C13.0196 15.375 15.375 13.0196 15.375 10.125C15.375 7.23038 13.0196 4.875 10.125 4.875C7.23038 4.875 4.875 7.23038 4.875 10.125C4.875 13.0196 7.23038 15.375 10.125 15.375Z" fill="white"/>
<path d="M20.3707 19.1434C20.7097 19.4824 20.7097 20.0317 20.3707 20.3707C20.0317 20.7097 19.4824 20.7097 19.1434 20.3707C18.9739 20.2012 13.875 15.1024 13.875 15.1024L15.1024 13.875C15.1024 13.875 20.2012 18.9739 20.3707 19.1434Z" fill="white"/>
</svg>
