<svg width="28" height="28" viewBox="0 0 28 28" fill="none" xmlns="http://www.w3.org/2000/svg">
<path d="M12.7114 4.375C12.1256 4.375 11.6251 4.79684 11.5262 5.3739L11.2716 6.85303C11.1377 6.90421 11.0042 6.95719 10.8743 7.01538L9.65063 6.15063C9.11338 5.7792 8.48021 5.91514 8.10571 6.28308L6.28308 8.10486C5.86877 8.51917 5.81374 9.17116 6.15149 9.64978L7.01538 10.8743C6.95676 11.0042 6.90421 11.1369 6.85303 11.2708L5.3739 11.5254C4.7964 11.6247 4.375 12.1256 4.375 12.7114V15.2886C4.375 15.8744 4.79684 16.3749 5.3739 16.4738L6.85303 16.7284C6.90421 16.8623 6.95719 16.9958 7.01538 17.1257L6.15063 18.3494C5.81288 18.8276 5.86877 19.48 6.28308 19.8943L8.10486 21.7169C8.57911 22.1807 9.24203 22.1438 9.64978 21.8485L10.8743 20.9846C11.0042 21.0432 11.1369 21.0958 11.2708 21.147L11.5254 22.6261C11.6247 23.2036 12.1256 23.625 12.7114 23.625H15.2886C15.8744 23.625 16.3749 23.2032 16.4738 22.6261L16.7284 21.147C16.8623 21.0958 16.9958 21.0428 17.1257 20.9846L18.3494 21.8494C18.7103 22.1154 19.4003 22.2113 19.8943 21.7169L21.7169 19.8951C22.1312 19.4808 22.1863 18.8288 21.8485 18.3502L20.9846 17.1257C21.0432 16.9958 21.0958 16.8631 21.147 16.7292L22.6261 16.4746C23.2036 16.3753 23.625 15.8744 23.625 15.2886V12.7114C23.625 12.1256 23.2032 11.6251 22.6261 11.5262L21.147 11.2716C21.0958 11.1377 21.0428 11.0042 20.9846 10.8743L21.8494 9.65063C22.1871 9.17245 22.1312 8.52003 21.7169 8.10571L19.8951 6.28308C19.4327 5.83158 18.7917 5.8413 18.3502 6.15149L17.1257 7.01538C16.9958 6.95676 16.8631 6.90421 16.7292 6.85303L16.4746 5.3739C16.3753 4.7964 15.8744 4.375 15.2886 4.375H12.7114ZM13.219 6.125H14.7819C14.8085 6.125 14.8313 6.14404 14.8357 6.17029L15.1732 8.13306C15.9467 8.41087 16.6709 8.70369 17.3206 9.02087L18.9449 7.87329C18.9668 7.85798 18.9971 7.86046 19.0159 7.87927L20.1207 8.98499C20.1395 9.0038 20.1429 9.03318 20.1276 9.05505L18.9791 10.6803C19.3112 11.3825 19.6106 12.0966 19.8669 12.8268L21.8297 13.1652C21.856 13.1695 21.875 13.1923 21.875 13.219V14.7819C21.875 14.8085 21.8555 14.8313 21.8289 14.8357L19.8669 15.1732C19.611 15.9034 19.3151 16.6188 18.9791 17.3206L20.1276 18.9458C20.1429 18.9677 20.1395 18.9971 20.1207 19.0159L19.0159 20.1216C18.9971 20.1404 18.9668 20.1429 18.9449 20.1276L17.3206 18.98C16.6031 19.3173 15.8872 19.6127 15.1732 19.8678L14.8348 21.8297C14.8305 21.856 14.8077 21.875 14.781 21.875H13.2181C13.1915 21.875 13.1687 21.8555 13.1643 21.8289L12.8268 19.8669C12.1228 19.6224 11.4079 19.3309 10.6794 18.9791L9.0542 20.1276C9.03232 20.1429 9.00294 20.1395 8.98413 20.1207L7.87842 19.0159C7.85961 18.9971 7.85712 18.9668 7.87244 18.9449L9.02002 17.3206C8.67921 16.5921 8.38333 15.8763 8.1322 15.1732L6.17029 14.8348C6.14404 14.8305 6.125 14.8077 6.125 14.781V13.2181C6.125 13.1915 6.14404 13.1691 6.17029 13.1643L8.13306 12.8259C8.38724 12.1102 8.67875 11.3948 9.02087 10.6794L7.87244 9.0542C7.85712 9.03232 7.86046 9.00294 7.87927 8.98413L8.98413 7.87842C9.00294 7.85961 9.03318 7.85712 9.05505 7.87244L10.6794 9.02002C11.3567 8.69496 12.0747 8.40083 12.8268 8.1322L13.1652 6.17029C13.1695 6.14404 13.1923 6.125 13.219 6.125ZM14 10.0625C11.8252 10.0625 10.0625 11.8252 10.0625 14C10.0625 16.1748 11.8252 17.9375 14 17.9375C16.1748 17.9375 17.9375 16.1748 17.9375 14C17.9375 11.8252 16.1748 10.0625 14 10.0625ZM14 11.8125C15.2079 11.8125 16.1875 12.7921 16.1875 14C16.1875 15.2079 15.2079 16.1875 14 16.1875C12.7921 16.1875 11.8125 15.2079 11.8125 14C11.8125 12.7921 12.7921 11.8125 14 11.8125Z" fill="white"/>
</svg>
