<svg width="48" height="48" viewBox="0 0 48 48" fill="none" xmlns="http://www.w3.org/2000/svg">
<g filter="url(#filter0_di_2884_2272)">
<path d="M34.1695 22.0115C34.6495 22.094 35 22.51 35 22.997V25.003C35 25.49 34.6495 25.906 34.1695 25.9885L32.4375 26.2865C32.24 27.017 31.953 27.7095 31.584 28.351L32.597 29.785C32.878 30.1825 32.8315 30.725 32.4875 31.069L31.069 32.4875C30.7245 32.832 30.1825 32.878 29.785 32.597L28.351 31.5845C27.7095 31.9535 27.017 32.24 26.2865 32.438L25.9885 34.17C25.906 34.6495 25.49 35 25.003 35H22.997C22.51 35 22.094 34.6495 22.0115 34.1695L21.7135 32.4375C20.983 32.24 20.2905 31.953 19.649 31.584L18.215 32.5965C17.8175 32.8775 17.275 32.831 16.931 32.487L15.5125 31.0685C15.1685 30.724 15.122 30.182 15.403 29.7845L16.416 28.3505C16.047 27.709 15.76 27.0165 15.5625 26.286L13.8305 25.988C13.3505 25.906 13 25.49 13 25.003V22.997C13 22.51 13.3505 22.094 13.8305 22.0115L15.5625 21.7135C15.76 20.983 16.047 20.2905 16.416 19.649L15.403 18.215C15.122 17.8175 15.1685 17.275 15.5125 16.931L16.931 15.5125C17.2755 15.1685 17.8175 15.122 18.215 15.403L19.649 16.416C20.2905 16.047 20.983 15.7605 21.7135 15.5625L22.0115 13.8305C22.094 13.3505 22.51 13 22.997 13H25.003C25.49 13 25.906 13.3505 25.9885 13.8305L26.2865 15.5625C27.017 15.76 27.7095 16.047 28.351 16.416L29.785 15.403C30.1825 15.122 30.725 15.1685 31.069 15.5125L32.4875 16.931C32.8315 17.275 32.878 17.8175 32.597 18.215L31.584 19.649C31.953 20.2905 32.24 20.983 32.4375 21.7135L34.1695 22.0115ZM24 28C26.209 28 28 26.209 28 24C28 21.791 26.209 20 24 20C21.791 20 20 21.791 20 24C20 26.209 21.791 28 24 28Z" fill="white" fill-opacity="0.7" shape-rendering="crispEdges"/>
</g>
<defs>
<filter id="filter0_di_2884_2272" x="10" y="11.5" width="28" height="28" filterUnits="userSpaceOnUse" color-interpolation-filters="sRGB">
<feFlood flood-opacity="0" result="BackgroundImageFix"/>
<feColorMatrix in="SourceAlpha" type="matrix" values="0 0 0 0 0 0 0 0 0 0 0 0 0 0 0 0 0 0 127 0" result="hardAlpha"/>
<feOffset dy="1.5"/>
<feGaussianBlur stdDeviation="1.5"/>
<feComposite in2="hardAlpha" operator="out"/>
<feColorMatrix type="matrix" values="0 0 0 0 0 0 0 0 0 0 0 0 0 0 0 0 0 0 0.12 0"/>
<feBlend mode="normal" in2="BackgroundImageFix" result="effect1_dropShadow_2884_2272"/>
<feBlend mode="normal" in="SourceGraphic" in2="effect1_dropShadow_2884_2272" result="shape"/>
<feColorMatrix in="SourceAlpha" type="matrix" values="0 0 0 0 0 0 0 0 0 0 0 0 0 0 0 0 0 0 127 0" result="hardAlpha"/>
<feOffset dy="1.5"/>
<feComposite in2="hardAlpha" operator="arithmetic" k2="-1" k3="1"/>
<feColorMatrix type="matrix" values="0 0 0 0 1 0 0 0 0 1 0 0 0 0 1 0 0 0 0.7 0"/>
<feBlend mode="normal" in2="shape" result="effect2_innerShadow_2884_2272"/>
</filter>
</defs>
</svg>
