<svg width="64" height="64" viewBox="0 0 64 64" fill="none" xmlns="http://www.w3.org/2000/svg">
<g filter="url(#filter0_di_2835_6287)">
<path d="M18.0005 11.9998C15.7915 11.9998 14.0005 13.7908 14.0005 15.9998V18.9998L12.0005 23.9998V29.9998V30.4626C12.2627 30.6979 12.6084 30.9103 13.0005 31.0974V47.9998C13.0005 50.2088 14.7915 51.9998 17.0005 51.9998H47.0005C49.2095 51.9998 51.0005 50.2088 51.0005 47.9998V31.0974C51.3926 30.9103 51.7383 30.6979 52.0005 30.4626V26.4626V23.9998L50.0005 18.9998V15.9998C50.0005 13.7908 48.2095 11.9998 46.0005 11.9998H18.0005ZM19.0005 15.9998H45.0005C45.5525 15.9998 46.0005 16.4478 46.0005 16.9998V18.9998L48.0005 23.9998V27.9177C47.651 27.9606 47.3008 27.9998 47.0005 27.9998C45.4615 27.9998 43.0625 27.4156 42.0005 26.4626C40.9385 27.4156 38.5395 27.9998 37.0005 27.9998C35.4615 27.9998 33.0625 27.4156 32.0005 26.4626C30.9385 27.4156 28.5395 27.9998 27.0005 27.9998C25.4615 27.9998 23.0625 27.4156 22.0005 26.4626C20.9385 27.4156 18.5395 27.9998 17.0005 27.9998C16.7002 27.9998 16.3499 27.9606 16.0005 27.9177V23.9998L18.0005 18.9998V16.9998C18.0005 16.4478 18.4485 15.9998 19.0005 15.9998ZM22.0005 30.4626C23.0625 31.4156 25.4615 31.9998 27.0005 31.9998C28.5395 31.9998 30.9385 31.4156 32.0005 30.4626C33.0625 31.4156 35.4615 31.9998 37.0005 31.9998C38.5395 31.9998 40.9385 31.4156 42.0005 30.4626C43.0625 31.4156 45.4615 31.9998 47.0005 31.9998V46.9998C47.0005 47.5518 46.5525 47.9998 46.0005 47.9998H42.0005V37.9998C42.0005 36.8948 41.1055 35.9998 40.0005 35.9998H36.0005C34.8955 35.9998 34.0005 36.8948 34.0005 37.9998V47.9998H18.0005C17.4485 47.9998 17.0005 47.5518 17.0005 46.9998V31.9998C18.5395 31.9998 20.9385 31.4156 22.0005 30.4626ZM24.0005 35.9998C22.8955 35.9998 22.0005 36.8948 22.0005 37.9998V41.9998C22.0005 43.1048 22.8955 43.9998 24.0005 43.9998H28.0005C29.1055 43.9998 30.0005 43.1048 30.0005 41.9998V37.9998C30.0005 36.8948 29.1055 35.9998 28.0005 35.9998H24.0005Z" fill="white" fill-opacity="0.7"/>
</g>
<defs>
<filter id="filter0_di_2835_6287" x="9.33382" y="10.6664" width="45.3333" height="45.3333" filterUnits="userSpaceOnUse" color-interpolation-filters="sRGB">
<feFlood flood-opacity="0" result="BackgroundImageFix"/>
<feColorMatrix in="SourceAlpha" type="matrix" values="0 0 0 0 0 0 0 0 0 0 0 0 0 0 0 0 0 0 127 0" result="hardAlpha"/>
<feOffset dy="1.33333"/>
<feGaussianBlur stdDeviation="1.33333"/>
<feColorMatrix type="matrix" values="0 0 0 0 0 0 0 0 0 0 0 0 0 0 0 0 0 0 0.4 0"/>
<feBlend mode="normal" in2="BackgroundImageFix" result="effect1_dropShadow_2835_6287"/>
<feBlend mode="normal" in="SourceGraphic" in2="effect1_dropShadow_2835_6287" result="shape"/>
<feColorMatrix in="SourceAlpha" type="matrix" values="0 0 0 0 0 0 0 0 0 0 0 0 0 0 0 0 0 0 127 0" result="hardAlpha"/>
<feOffset dy="1.33333"/>
<feComposite in2="hardAlpha" operator="arithmetic" k2="-1" k3="1"/>
<feColorMatrix type="matrix" values="0 0 0 0 1 0 0 0 0 1 0 0 0 0 1 0 0 0 1 0"/>
<feBlend mode="normal" in2="shape" result="effect2_innerShadow_2835_6287"/>
</filter>
</defs>
</svg>
